<?xml version="1.0" encoding="us-ascii" standalone="no"?><svg xmlns="http://www.w3.org/2000/svg" xmlns:xlink="http://www.w3.org/1999/xlink" contentStyleType="text/css" height="406px" preserveAspectRatio="none" style="width:912px;height:406px;" version="1.1" viewBox="0 0 912 406" width="912px" zoomAndPan="magnify"><defs/><g><text fill="#000000" font-family="sans-serif" font-size="14" font-weight="bold" lengthAdjust="spacing" textLength="238" x="333" y="40.6357">Waardepapieren Microservice</text><line style="stroke:#181818;stroke-width:0.5;stroke-dasharray:5.0,5.0;" x1="109" x2="109" y1="117.2344" y2="325.0313"/><line style="stroke:#181818;stroke-width:0.5;stroke-dasharray:5.0,5.0;" x1="348" x2="348" y1="117.2344" y2="325.0313"/><line style="stroke:#181818;stroke-width:0.5;stroke-dasharray:5.0,5.0;" x1="569" x2="569" y1="117.2344" y2="325.0313"/><line style="stroke:#181818;stroke-width:0.5;stroke-dasharray:5.0,5.0;" x1="756" x2="756" y1="117.2344" y2="325.0313"/><text fill="#000000" font-family="sans-serif" font-size="14" lengthAdjust="spacing" textLength="203" x="5" y="113.9326">Zaak registratie component</text><path d="M91.5,64.9375 C91.5,54.9375 109.5,54.9375 109.5,54.9375 C109.5,54.9375 127.5,54.9375 127.5,64.9375 L127.5,90.9375 C127.5,100.9375 109.5,100.9375 109.5,100.9375 C109.5,100.9375 91.5,100.9375 91.5,90.9375 L91.5,64.9375 " fill="#00377A" style="stroke:#181818;stroke-width:1.5;"/><path d="M91.5,64.9375 C91.5,74.9375 109.5,74.9375 109.5,74.9375 C109.5,74.9375 127.5,74.9375 127.5,64.9375 " fill="none" style="stroke:#181818;stroke-width:1.5;"/><text fill="#000000" font-family="sans-serif" font-size="14" lengthAdjust="spacing" textLength="203" x="5" y="337.0264">Zaak registratie component</text><path d="M91.5,350.3281 C91.5,340.3281 109.5,340.3281 109.5,340.3281 C109.5,340.3281 127.5,340.3281 127.5,350.3281 L127.5,376.3281 C127.5,386.3281 109.5,386.3281 109.5,386.3281 C109.5,386.3281 91.5,386.3281 91.5,376.3281 L91.5,350.3281 " fill="#00377A" style="stroke:#181818;stroke-width:1.5;"/><path d="M91.5,350.3281 C91.5,360.3281 109.5,360.3281 109.5,360.3281 C109.5,360.3281 127.5,360.3281 127.5,350.3281 " fill="none" style="stroke:#181818;stroke-width:1.5;"/><text fill="#000000" font-family="sans-serif" font-size="14" lengthAdjust="spacing" textLength="243" x="224" y="113.9326">Document registratie component</text><path d="M330.5,64.9375 C330.5,54.9375 348.5,54.9375 348.5,54.9375 C348.5,54.9375 366.5,54.9375 366.5,64.9375 L366.5,90.9375 C366.5,100.9375 348.5,100.9375 348.5,100.9375 C348.5,100.9375 330.5,100.9375 330.5,90.9375 L330.5,64.9375 " fill="#00377A" style="stroke:#181818;stroke-width:1.5;"/><path d="M330.5,64.9375 C330.5,74.9375 348.5,74.9375 348.5,74.9375 C348.5,74.9375 366.5,74.9375 366.5,64.9375 " fill="none" style="stroke:#181818;stroke-width:1.5;"/><text fill="#000000" font-family="sans-serif" font-size="14" lengthAdjust="spacing" textLength="243" x="224" y="337.0264">Document registratie component</text><path d="M330.5,350.3281 C330.5,340.3281 348.5,340.3281 348.5,340.3281 C348.5,340.3281 366.5,340.3281 366.5,350.3281 L366.5,376.3281 C366.5,386.3281 348.5,386.3281 348.5,386.3281 C348.5,386.3281 330.5,386.3281 330.5,376.3281 L330.5,350.3281 " fill="#00377A" style="stroke:#181818;stroke-width:1.5;"/><path d="M330.5,350.3281 C330.5,360.3281 348.5,360.3281 348.5,360.3281 C348.5,360.3281 366.5,360.3281 366.5,350.3281 " fill="none" style="stroke:#181818;stroke-width:1.5;"/><text fill="#000000" font-family="sans-serif" font-size="14" lengthAdjust="spacing" textLength="166" x="483" y="113.9326">Notificatie Component</text><ellipse cx="569" cy="84.9375" fill="#00377A" rx="12" ry="12" style="stroke:#181818;stroke-width:0.5;"/><line style="stroke:#181818;stroke-width:0.5;" x1="557" x2="581" y1="98.9375" y2="98.9375"/><text fill="#000000" font-family="sans-serif" font-size="14" lengthAdjust="spacing" textLength="166" x="483" y="337.0264">Notificatie Component</text><ellipse cx="569" cy="356.3281" fill="#00377A" rx="12" ry="12" style="stroke:#181818;stroke-width:0.5;"/><line style="stroke:#181818;stroke-width:0.5;" x1="557" x2="581" y1="370.3281" y2="370.3281"/><text fill="#000000" font-family="sans-serif" font-size="14" lengthAdjust="spacing" textLength="176" x="665" y="113.9326">Waardepapieren Service</text><ellipse cx="756" cy="84.9375" fill="#FA4494" rx="12" ry="12" style="stroke:#181818;stroke-width:0.5;"/><line style="stroke:#181818;stroke-width:0.5;" x1="744" x2="768" y1="98.9375" y2="98.9375"/><text fill="#000000" font-family="sans-serif" font-size="14" lengthAdjust="spacing" textLength="176" x="665" y="337.0264">Waardepapieren Service</text><ellipse cx="756" cy="356.3281" fill="#FA4494" rx="12" ry="12" style="stroke:#181818;stroke-width:0.5;"/><line style="stroke:#181818;stroke-width:0.5;" x1="744" x2="768" y1="370.3281" y2="370.3281"/><polygon fill="#181818" points="557,144.3672,567,148.3672,557,152.3672,561,148.3672" style="stroke:#181818;stroke-width:1.0;"/><line style="stroke:#181818;stroke-width:1.0;" x1="109.5" x2="563" y1="148.3672" y2="148.3672"/><text fill="#000000" font-family="sans-serif" font-size="13" lengthAdjust="spacing" textLength="69" x="116.5" y="143.3013">Notificeerd</text><polygon fill="#181818" points="744,173.5,754,177.5,744,181.5,748,177.5" style="stroke:#181818;stroke-width:1.0;"/><line style="stroke:#181818;stroke-width:1.0;" x1="569" x2="750" y1="177.5" y2="177.5"/><text fill="#000000" font-family="sans-serif" font-size="13" lengthAdjust="spacing" textLength="69" x="576" y="172.4341">Notificeerd</text><polygon fill="#181818" points="120.5,202.6328,110.5,206.6328,120.5,210.6328,116.5,206.6328" style="stroke:#181818;stroke-width:1.0;"/><line style="stroke:#181818;stroke-width:1.0;" x1="114.5" x2="755" y1="206.6328" y2="206.6328"/><text fill="#000000" font-family="sans-serif" font-size="13" lengthAdjust="spacing" textLength="90" x="126.5" y="201.5669">Haalt Zaak op</text><line style="stroke:#181818;stroke-width:1.0;" x1="756" x2="798" y1="235.7656" y2="235.7656"/><line style="stroke:#181818;stroke-width:1.0;" x1="798" x2="798" y1="235.7656" y2="248.7656"/><line style="stroke:#181818;stroke-width:1.0;" x1="757" x2="798" y1="248.7656" y2="248.7656"/><polygon fill="#181818" points="767,244.7656,757,248.7656,767,252.7656,763,248.7656" style="stroke:#181818;stroke-width:1.0;"/><text fill="#000000" font-family="sans-serif" font-size="13" lengthAdjust="spacing" textLength="135" x="763" y="230.6997">Creerd waardepapier</text><polygon fill="#181818" points="359.5,273.8984,349.5,277.8984,359.5,281.8984,355.5,277.8984" style="stroke:#181818;stroke-width:1.0;"/><line style="stroke:#181818;stroke-width:1.0;" x1="353.5" x2="755" y1="277.8984" y2="277.8984"/><text fill="#000000" font-family="sans-serif" font-size="13" lengthAdjust="spacing" textLength="131" x="365.5" y="272.8325">Plaats waardepapier</text><polygon fill="#181818" points="120.5,303.0313,110.5,307.0313,120.5,311.0313,116.5,307.0313" style="stroke:#181818;stroke-width:1.0;"/><line style="stroke:#181818;stroke-width:1.0;" x1="114.5" x2="755" y1="307.0313" y2="307.0313"/><text fill="#000000" font-family="sans-serif" font-size="13" lengthAdjust="spacing" textLength="67" x="126.5" y="301.9653">Zet status</text><text fill="#888888" font-family="sans-serif" font-size="10" lengthAdjust="spacing" textLength="115" x="789" y="14.2822">Waardepapieren.app</text><text fill="#888888" font-family="sans-serif" font-size="10" lengthAdjust="spacing" textLength="115" x="394.5" y="396.6104">Waardepapieren.app</text><!--SRC=[VP0zRuCm48Pt_ueJcLj5Ab9KXYumP2b2wO34TZ57QW6sTJvIzT_NK0QIVgpl-pndtucHWJAe4RabZzuGauLNeza5uglHf3hdXFYUUKJlrJjX-qSLUcCzCevmHjrVs4sspTtW68JHXbYH5QLQ53nZ84WQn1wOBYP4G0o1TgDtDb89O83cbCDkltyw770Z5KvFOqJ-4OkD63CZdv2KJandz4BdDtJv4xwxpTltMHQwhc3NOPe-fqhD7tnuYGCoMCSJSQlA9QshspIACOrA1aV4GM3PtlcrcF6SPn8-Dg-lRJ5hrO0euRTwcTgGG12KANm1]--></g></svg>