<?xml version="1.0" encoding="us-ascii" standalone="no"?><svg xmlns="http://www.w3.org/2000/svg" xmlns:xlink="http://www.w3.org/1999/xlink" contentStyleType="text/css" height="464px" preserveAspectRatio="none" style="width:1162px;height:464px;background:#FFFFFF;" version="1.1" viewBox="0 0 1162 464" width="1162px" zoomAndPan="magnify"><defs/><g><text fill="#000000" font-family="sans-serif" font-size="14" font-weight="bold" lengthAdjust="spacing" textLength="155" x="499.5" y="40.6357">ZGW Waardepapier</text><line style="stroke:#181818;stroke-width:0.5;stroke-dasharray:5.0,5.0;" x1="33" x2="33" y1="131.2344" y2="368.1641"/><line style="stroke:#181818;stroke-width:0.5;stroke-dasharray:5.0,5.0;" x1="176" x2="176" y1="131.2344" y2="368.1641"/><line style="stroke:#181818;stroke-width:0.5;stroke-dasharray:5.0,5.0;" x1="415" x2="415" y1="131.2344" y2="368.1641"/><line style="stroke:#181818;stroke-width:0.5;stroke-dasharray:5.0,5.0;" x1="636" x2="636" y1="131.2344" y2="368.1641"/><line style="stroke:#181818;stroke-width:0.5;stroke-dasharray:5.0,5.0;" x1="823" x2="823" y1="131.2344" y2="368.1641"/><line style="stroke:#181818;stroke-width:0.5;stroke-dasharray:5.0,5.0;" x1="1026" x2="1026" y1="131.2344" y2="368.1641"/><line style="stroke:#181818;stroke-width:0.5;stroke-dasharray:5.0,5.0;" x1="1125" x2="1125" y1="131.2344" y2="368.1641"/><text fill="#000000" font-family="sans-serif" font-size="14" lengthAdjust="spacing" textLength="51" x="5" y="127.9326">Citizen</text><ellipse cx="33.5" cy="63.4375" fill="#E2E2F0" rx="8" ry="8" style="stroke:#181818;stroke-width:0.5;"/><path d="M33.5,71.4375 L33.5,98.4375 M20.5,79.4375 L46.5,79.4375 M33.5,98.4375 L20.5,113.4375 M33.5,98.4375 L46.5,113.4375 " fill="none" style="stroke:#181818;stroke-width:0.5;"/><text fill="#000000" font-family="sans-serif" font-size="14" lengthAdjust="spacing" textLength="51" x="5" y="380.1592">Citizen</text><ellipse cx="33.5" cy="391.9609" fill="#E2E2F0" rx="8" ry="8" style="stroke:#181818;stroke-width:0.5;"/><path d="M33.5,399.9609 L33.5,426.9609 M20.5,407.9609 L46.5,407.9609 M33.5,426.9609 L20.5,441.9609 M33.5,426.9609 L46.5,441.9609 " fill="none" style="stroke:#181818;stroke-width:0.5;"/><text fill="#000000" font-family="sans-serif" font-size="14" lengthAdjust="spacing" textLength="203" x="72" y="127.9326">Zaak registratie component</text><path d="M158.5,78.9375 C158.5,68.9375 176.5,68.9375 176.5,68.9375 C176.5,68.9375 194.5,68.9375 194.5,78.9375 L194.5,104.9375 C194.5,114.9375 176.5,114.9375 176.5,114.9375 C176.5,114.9375 158.5,114.9375 158.5,104.9375 L158.5,78.9375 " fill="#E2E2F0" style="stroke:#181818;stroke-width:1.5;"/><path d="M158.5,78.9375 C158.5,88.9375 176.5,88.9375 176.5,88.9375 C176.5,88.9375 194.5,88.9375 194.5,78.9375 " fill="none" style="stroke:#181818;stroke-width:1.5;"/><text fill="#000000" font-family="sans-serif" font-size="14" lengthAdjust="spacing" textLength="203" x="72" y="380.1592">Zaak registratie component</text><path d="M158.5,393.4609 C158.5,383.4609 176.5,383.4609 176.5,383.4609 C176.5,383.4609 194.5,383.4609 194.5,393.4609 L194.5,419.4609 C194.5,429.4609 176.5,429.4609 176.5,429.4609 C176.5,429.4609 158.5,429.4609 158.5,419.4609 L158.5,393.4609 " fill="#E2E2F0" style="stroke:#181818;stroke-width:1.5;"/><path d="M158.5,393.4609 C158.5,403.4609 176.5,403.4609 176.5,403.4609 C176.5,403.4609 194.5,403.4609 194.5,393.4609 " fill="none" style="stroke:#181818;stroke-width:1.5;"/><text fill="#000000" font-family="sans-serif" font-size="14" lengthAdjust="spacing" textLength="243" x="291" y="127.9326">Document registratie component</text><path d="M397.5,78.9375 C397.5,68.9375 415.5,68.9375 415.5,68.9375 C415.5,68.9375 433.5,68.9375 433.5,78.9375 L433.5,104.9375 C433.5,114.9375 415.5,114.9375 415.5,114.9375 C415.5,114.9375 397.5,114.9375 397.5,104.9375 L397.5,78.9375 " fill="#E2E2F0" style="stroke:#181818;stroke-width:1.5;"/><path d="M397.5,78.9375 C397.5,88.9375 415.5,88.9375 415.5,88.9375 C415.5,88.9375 433.5,88.9375 433.5,78.9375 " fill="none" style="stroke:#181818;stroke-width:1.5;"/><text fill="#000000" font-family="sans-serif" font-size="14" lengthAdjust="spacing" textLength="243" x="291" y="380.1592">Document registratie component</text><path d="M397.5,393.4609 C397.5,383.4609 415.5,383.4609 415.5,383.4609 C415.5,383.4609 433.5,383.4609 433.5,393.4609 L433.5,419.4609 C433.5,429.4609 415.5,429.4609 415.5,429.4609 C415.5,429.4609 397.5,429.4609 397.5,419.4609 L397.5,393.4609 " fill="#E2E2F0" style="stroke:#181818;stroke-width:1.5;"/><path d="M397.5,393.4609 C397.5,403.4609 415.5,403.4609 415.5,403.4609 C415.5,403.4609 433.5,403.4609 433.5,393.4609 " fill="none" style="stroke:#181818;stroke-width:1.5;"/><text fill="#000000" font-family="sans-serif" font-size="14" lengthAdjust="spacing" textLength="166" x="550" y="127.9326">Notificatie Component</text><ellipse cx="636" cy="98.9375" fill="#E2E2F0" rx="12" ry="12" style="stroke:#181818;stroke-width:0.5;"/><line style="stroke:#181818;stroke-width:0.5;" x1="624" x2="648" y1="112.9375" y2="112.9375"/><text fill="#000000" font-family="sans-serif" font-size="14" lengthAdjust="spacing" textLength="166" x="550" y="380.1592">Notificatie Component</text><ellipse cx="636" cy="399.4609" fill="#E2E2F0" rx="12" ry="12" style="stroke:#181818;stroke-width:0.5;"/><line style="stroke:#181818;stroke-width:0.5;" x1="624" x2="648" y1="413.4609" y2="413.4609"/><text fill="#000000" font-family="sans-serif" font-size="14" lengthAdjust="spacing" textLength="176" x="732" y="127.9326">Waardepapieren Service</text><ellipse cx="823" cy="98.9375" fill="#E2E2F0" rx="12" ry="12" style="stroke:#181818;stroke-width:0.5;"/><line style="stroke:#181818;stroke-width:0.5;" x1="811" x2="835" y1="112.9375" y2="112.9375"/><text fill="#000000" font-family="sans-serif" font-size="14" lengthAdjust="spacing" textLength="176" x="732" y="380.1592">Waardepapieren Service</text><ellipse cx="823" cy="399.4609" fill="#E2E2F0" rx="12" ry="12" style="stroke:#181818;stroke-width:0.5;"/><line style="stroke:#181818;stroke-width:0.5;" x1="811" x2="835" y1="413.4609" y2="413.4609"/><text fill="#000000" font-family="sans-serif" font-size="14" lengthAdjust="spacing" textLength="122" x="962" y="127.9326">Haalcentraal BRP</text><path d="M1008,78.9375 C1008,68.9375 1026,68.9375 1026,68.9375 C1026,68.9375 1044,68.9375 1044,78.9375 L1044,104.9375 C1044,114.9375 1026,114.9375 1026,114.9375 C1026,114.9375 1008,114.9375 1008,104.9375 L1008,78.9375 " fill="#E2E2F0" style="stroke:#181818;stroke-width:1.5;"/><path d="M1008,78.9375 C1008,88.9375 1026,88.9375 1026,88.9375 C1026,88.9375 1044,88.9375 1044,78.9375 " fill="none" style="stroke:#181818;stroke-width:1.5;"/><text fill="#000000" font-family="sans-serif" font-size="14" lengthAdjust="spacing" textLength="122" x="962" y="380.1592">Haalcentraal BRP</text><path d="M1008,393.4609 C1008,383.4609 1026,383.4609 1026,383.4609 C1026,383.4609 1044,383.4609 1044,393.4609 L1044,419.4609 C1044,429.4609 1026,429.4609 1026,429.4609 C1026,429.4609 1008,429.4609 1008,419.4609 L1008,393.4609 " fill="#E2E2F0" style="stroke:#181818;stroke-width:1.5;"/><path d="M1008,393.4609 C1008,403.4609 1026,403.4609 1026,403.4609 C1026,403.4609 1044,403.4609 1044,393.4609 " fill="none" style="stroke:#181818;stroke-width:1.5;"/><text fill="#000000" font-family="sans-serif" font-size="14" lengthAdjust="spacing" textLength="44" x="1100" y="127.9326">Notify</text><ellipse cx="1125" cy="98.9375" fill="#E2E2F0" rx="12" ry="12" style="stroke:#181818;stroke-width:0.5;"/><line style="stroke:#181818;stroke-width:0.5;" x1="1113" x2="1137" y1="112.9375" y2="112.9375"/><text fill="#000000" font-family="sans-serif" font-size="14" lengthAdjust="spacing" textLength="44" x="1100" y="380.1592">Notify</text><ellipse cx="1125" cy="399.4609" fill="#E2E2F0" rx="12" ry="12" style="stroke:#181818;stroke-width:0.5;"/><line style="stroke:#181818;stroke-width:0.5;" x1="1113" x2="1137" y1="413.4609" y2="413.4609"/><polygon fill="#181818" points="624,158.3672,634,162.3672,624,166.3672,628,162.3672" style="stroke:#181818;stroke-width:1.0;"/><line style="stroke:#181818;stroke-width:1.0;" x1="176.5" x2="630" y1="162.3672" y2="162.3672"/><text fill="#000000" font-family="sans-serif" font-size="13" lengthAdjust="spacing" textLength="69" x="183.5" y="157.3013">Notificeerd</text><polygon fill="#181818" points="811,187.5,821,191.5,811,195.5,815,191.5" style="stroke:#181818;stroke-width:1.0;"/><line style="stroke:#181818;stroke-width:1.0;" x1="636" x2="817" y1="191.5" y2="191.5"/><text fill="#000000" font-family="sans-serif" font-size="13" lengthAdjust="spacing" textLength="69" x="643" y="186.4341">Notificeerd</text><polygon fill="#181818" points="187.5,216.6328,177.5,220.6328,187.5,224.6328,183.5,220.6328" style="stroke:#181818;stroke-width:1.0;"/><line style="stroke:#181818;stroke-width:1.0;" x1="181.5" x2="822" y1="220.6328" y2="220.6328"/><text fill="#000000" font-family="sans-serif" font-size="13" lengthAdjust="spacing" textLength="90" x="193.5" y="215.5669">Haalt Zaak op</text><polygon fill="#181818" points="1014,245.7656,1024,249.7656,1014,253.7656,1018,249.7656" style="stroke:#181818;stroke-width:1.0;"/><line style="stroke:#181818;stroke-width:1.0;" x1="823" x2="1020" y1="249.7656" y2="249.7656"/><text fill="#000000" font-family="sans-serif" font-size="13" lengthAdjust="spacing" textLength="179" x="830" y="244.6997">Haalt Persoonsgegevens op</text><line style="stroke:#181818;stroke-width:1.0;" x1="823" x2="865" y1="278.8984" y2="278.8984"/><line style="stroke:#181818;stroke-width:1.0;" x1="865" x2="865" y1="278.8984" y2="291.8984"/><line style="stroke:#181818;stroke-width:1.0;" x1="824" x2="865" y1="291.8984" y2="291.8984"/><polygon fill="#181818" points="834,287.8984,824,291.8984,834,295.8984,830,291.8984" style="stroke:#181818;stroke-width:1.0;"/><text fill="#000000" font-family="sans-serif" font-size="13" lengthAdjust="spacing" textLength="135" x="830" y="273.8325">Creerd waardepapier</text><polygon fill="#181818" points="426.5,317.0313,416.5,321.0313,426.5,325.0313,422.5,321.0313" style="stroke:#181818;stroke-width:1.0;"/><line style="stroke:#181818;stroke-width:1.0;" x1="420.5" x2="822" y1="321.0313" y2="321.0313"/><text fill="#000000" font-family="sans-serif" font-size="13" lengthAdjust="spacing" textLength="131" x="432.5" y="315.9653">Plaats waardepapier</text><polygon fill="#181818" points="187.5,346.1641,177.5,350.1641,187.5,354.1641,183.5,350.1641" style="stroke:#181818;stroke-width:1.0;"/><line style="stroke:#181818;stroke-width:1.0;" x1="181.5" x2="822" y1="350.1641" y2="350.1641"/><text fill="#000000" font-family="sans-serif" font-size="13" lengthAdjust="spacing" textLength="67" x="193.5" y="345.0981">Zet status</text><text fill="#888888" font-family="sans-serif" font-size="10" lengthAdjust="spacing" textLength="101" x="1053" y="14.2822">Common Gateway</text><text fill="#888888" font-family="sans-serif" font-size="10" lengthAdjust="spacing" textLength="216" x="469" y="453.7432">Common Gateway | ZGW Waardepapier</text><!--SRC=[VP71QiCm38RlVWgH-ruWXnsMG7SAfZi4SjCSDJDBh22hBHbx-3bkHrCwTfBG__twXQrUHogXsxNG8afFCywUn1oObQI4YgU90-nGwOmBV3-I7uJz8saCEcM1ogl_ec1wL7p7I51qY9yWDFYeWke974yp1mfQ04RezjK6hjaTfoJzOwYJ8VLU5oWQLd_mBbFL7TNSeEtr5E2DvEGTPQgrc-nNnD4bawGABtkRYLJlqvRB-jmQaww7f-UKLiBr5YBfJPEdhRsVjdQT9ai9QvP2VXgUhqAA-XKiIMGESQ21JXJY3LftLhAkW_FsLovglUws8wB6l-GStP52LDHZ_040]--></g></svg>