<?xml version="1.0" encoding="us-ascii" standalone="no"?><svg xmlns="http://www.w3.org/2000/svg" xmlns:xlink="http://www.w3.org/1999/xlink" contentStyleType="text/css" height="436px" preserveAspectRatio="none" style="width:569px;height:436px;" version="1.1" viewBox="0 0 569 436" width="569px" zoomAndPan="magnify"><defs/><g><text fill="#000000" font-family="sans-serif" font-size="14" font-weight="bold" lengthAdjust="spacing" textLength="154" x="203.75" y="40.6357">StuF Waardepapier</text><line style="stroke:#181818;stroke-width:0.5;stroke-dasharray:5.0,5.0;" x1="59" x2="59" y1="117.2344" y2="354.1641"/><line style="stroke:#181818;stroke-width:0.5;stroke-dasharray:5.0,5.0;" x1="241.5" x2="241.5" y1="117.2344" y2="354.1641"/><line style="stroke:#181818;stroke-width:0.5;stroke-dasharray:5.0,5.0;" x1="413.5" x2="413.5" y1="117.2344" y2="354.1641"/><text fill="#000000" font-family="sans-serif" font-size="14" lengthAdjust="spacing" textLength="102" x="5" y="113.9326">Zaak Systeem</text><path d="M41,64.9375 C41,54.9375 59,54.9375 59,54.9375 C59,54.9375 77,54.9375 77,64.9375 L77,90.9375 C77,100.9375 59,100.9375 59,100.9375 C59,100.9375 41,100.9375 41,90.9375 L41,64.9375 " fill="#00377A" style="stroke:#181818;stroke-width:1.5;"/><path d="M41,64.9375 C41,74.9375 59,74.9375 59,74.9375 C59,74.9375 77,74.9375 77,64.9375 " fill="none" style="stroke:#181818;stroke-width:1.5;"/><text fill="#000000" font-family="sans-serif" font-size="14" lengthAdjust="spacing" textLength="102" x="5" y="366.1592">Zaak Systeem</text><path d="M41,379.4609 C41,369.4609 59,369.4609 59,369.4609 C59,369.4609 77,369.4609 77,379.4609 L77,405.4609 C77,415.4609 59,415.4609 59,415.4609 C59,415.4609 41,415.4609 41,405.4609 L41,379.4609 " fill="#00377A" style="stroke:#181818;stroke-width:1.5;"/><path d="M41,379.4609 C41,389.4609 59,389.4609 59,389.4609 C59,389.4609 77,389.4609 77,379.4609 " fill="none" style="stroke:#181818;stroke-width:1.5;"/><text fill="#000000" font-family="sans-serif" font-size="14" lengthAdjust="spacing" textLength="135" x="171.5" y="113.9326">StuF/ZGW Adapter</text><ellipse cx="242" cy="84.9375" fill="#00377A" rx="12" ry="12" style="stroke:#181818;stroke-width:0.5;"/><line style="stroke:#181818;stroke-width:0.5;" x1="230" x2="254" y1="98.9375" y2="98.9375"/><text fill="#000000" font-family="sans-serif" font-size="14" lengthAdjust="spacing" textLength="135" x="171.5" y="366.1592">StuF/ZGW Adapter</text><ellipse cx="242" cy="385.4609" fill="#00377A" rx="12" ry="12" style="stroke:#181818;stroke-width:0.5;"/><line style="stroke:#181818;stroke-width:0.5;" x1="230" x2="254" y1="399.4609" y2="399.4609"/><text fill="#000000" font-family="sans-serif" font-size="14" lengthAdjust="spacing" textLength="176" x="322.5" y="113.9326">Waardepapieren Service</text><ellipse cx="413.5" cy="84.9375" fill="#FA4494" rx="12" ry="12" style="stroke:#181818;stroke-width:0.5;"/><line style="stroke:#181818;stroke-width:0.5;" x1="401.5" x2="425.5" y1="98.9375" y2="98.9375"/><text fill="#000000" font-family="sans-serif" font-size="14" lengthAdjust="spacing" textLength="176" x="322.5" y="366.1592">Waardepapieren Service</text><ellipse cx="413.5" cy="385.4609" fill="#FA4494" rx="12" ry="12" style="stroke:#181818;stroke-width:0.5;"/><line style="stroke:#181818;stroke-width:0.5;" x1="401.5" x2="425.5" y1="399.4609" y2="399.4609"/><polygon fill="#181818" points="230,144.3672,240,148.3672,230,152.3672,234,148.3672" style="stroke:#181818;stroke-width:1.0;"/><line style="stroke:#181818;stroke-width:1.0;" x1="59" x2="236" y1="148.3672" y2="148.3672"/><text fill="#000000" font-family="sans-serif" font-size="13" lengthAdjust="spacing" textLength="61" x="66" y="143.3013">StuF Brug</text><polygon fill="#181818" points="401.5,173.5,411.5,177.5,401.5,181.5,405.5,177.5" style="stroke:#181818;stroke-width:1.0;"/><line style="stroke:#181818;stroke-width:1.0;" x1="242" x2="407.5" y1="177.5" y2="177.5"/><text fill="#000000" font-family="sans-serif" font-size="13" lengthAdjust="spacing" textLength="33" x="249" y="172.4341">ZGW</text><line style="stroke:#181818;stroke-width:1.0;" x1="413.5" x2="455.5" y1="206.6328" y2="206.6328"/><line style="stroke:#181818;stroke-width:1.0;" x1="455.5" x2="455.5" y1="206.6328" y2="219.6328"/><line style="stroke:#181818;stroke-width:1.0;" x1="414.5" x2="455.5" y1="219.6328" y2="219.6328"/><polygon fill="#181818" points="424.5,215.6328,414.5,219.6328,424.5,223.6328,420.5,219.6328" style="stroke:#181818;stroke-width:1.0;"/><text fill="#000000" font-family="sans-serif" font-size="13" lengthAdjust="spacing" textLength="135" x="420.5" y="201.5669">Creerd waardepapier</text><polygon fill="#181818" points="253,244.7656,243,248.7656,253,252.7656,249,248.7656" style="stroke:#181818;stroke-width:1.0;"/><line style="stroke:#181818;stroke-width:1.0;" x1="247" x2="412.5" y1="248.7656" y2="248.7656"/><text fill="#000000" font-family="sans-serif" font-size="13" lengthAdjust="spacing" textLength="131" x="259" y="243.6997">Plaats waardepapier</text><polygon fill="#181818" points="70,273.8984,60,277.8984,70,281.8984,66,277.8984" style="stroke:#181818;stroke-width:1.0;"/><line style="stroke:#181818;stroke-width:1.0;" x1="64" x2="241" y1="277.8984" y2="277.8984"/><text fill="#000000" font-family="sans-serif" font-size="13" lengthAdjust="spacing" textLength="159" x="76" y="272.8325">Slaat ZGW om naar StuF</text><polygon fill="#181818" points="253,303.0313,243,307.0313,253,311.0313,249,307.0313" style="stroke:#181818;stroke-width:1.0;"/><line style="stroke:#181818;stroke-width:1.0;" x1="247" x2="412.5" y1="307.0313" y2="307.0313"/><text fill="#000000" font-family="sans-serif" font-size="13" lengthAdjust="spacing" textLength="67" x="259" y="301.9653">Zet status</text><polygon fill="#181818" points="70,332.1641,60,336.1641,70,340.1641,66,336.1641" style="stroke:#181818;stroke-width:1.0;"/><line style="stroke:#181818;stroke-width:1.0;" x1="64" x2="241" y1="336.1641" y2="336.1641"/><text fill="#000000" font-family="sans-serif" font-size="13" lengthAdjust="spacing" textLength="159" x="76" y="331.0981">Slaat ZGW om naar StuF</text><text fill="#888888" font-family="sans-serif" font-size="10" lengthAdjust="spacing" textLength="115" x="446.5" y="14.2822">Waardepapieren.app</text><text fill="#888888" font-family="sans-serif" font-size="10" lengthAdjust="spacing" textLength="115" x="223.25" y="425.7432">Waardepapieren.app</text><!--SRC=[ZP11IyD048Nl-ok6zgmM31Hp4BIWrq0EWTnUkzCQakmkinEb_zvDJALH16-x-zvyxyrgentdLEhmGXKWbWD2msAEtYjBldXaTuiGp1l3_Y75jd41WfxsEBGdyOEpEzzv8HMuc2HsQeo5Oe_8jAg1bifpLEP-HOXKbxJUREwtMvXaRVHCgx7SNVrQqPD5IAKcttp-PLwMefBblJdmD58Lj3uYonuoOrBCpUC5Ck__BCF9NBX9hOgSKgn9S_Dj9ynYwUFwexxKRrBH0HgNbYjcNQQmqJAIoVVaad6A_mcgMIagT8Z_c_y4]--></g></svg>