<?xml version="1.0" encoding="us-ascii" standalone="no"?><svg xmlns="http://www.w3.org/2000/svg" xmlns:xlink="http://www.w3.org/1999/xlink" contentStyleType="text/css" height="451px" preserveAspectRatio="none" style="width:896px;height:451px;background:#FFFFFF;" version="1.1" viewBox="0 0 896 451" width="896px" zoomAndPan="magnify"><defs/><g><text fill="#000000" font-family="sans-serif" font-size="14" font-weight="bold" lengthAdjust="spacing" textLength="193" x="347.5" y="40.6357">Waardepapier Intrekken</text><rect fill="none" height="90.2031" style="stroke:#000000;stroke-width:1.5;" width="541" x="10" y="248.6328"/><line style="stroke:#181818;stroke-width:0.5;stroke-dasharray:5.0,5.0;" x1="55" x2="55" y1="131.2344" y2="355.8359"/><line style="stroke:#181818;stroke-width:0.5;stroke-dasharray:5.0,5.0;" x1="191" x2="191" y1="131.2344" y2="355.8359"/><line style="stroke:#181818;stroke-width:0.5;stroke-dasharray:5.0,5.0;" x1="446" x2="446" y1="131.2344" y2="355.8359"/><text fill="#000000" font-family="sans-serif" font-size="14" lengthAdjust="spacing" textLength="64" x="20" y="127.9326">ScanApp</text><ellipse cx="55" cy="63.4375" fill="#FA4494" rx="8" ry="8" style="stroke:#181818;stroke-width:0.5;"/><path d="M55,71.4375 L55,98.4375 M42,79.4375 L68,79.4375 M55,98.4375 L42,113.4375 M55,98.4375 L68,113.4375 " fill="none" style="stroke:#181818;stroke-width:0.5;"/><text fill="#000000" font-family="sans-serif" font-size="14" lengthAdjust="spacing" textLength="64" x="20" y="367.8311">ScanApp</text><ellipse cx="55" cy="379.6328" fill="#FA4494" rx="8" ry="8" style="stroke:#181818;stroke-width:0.5;"/><path d="M55,387.6328 L55,414.6328 M42,395.6328 L68,395.6328 M55,414.6328 L42,429.6328 M55,414.6328 L68,429.6328 " fill="none" style="stroke:#181818;stroke-width:0.5;"/><text fill="#000000" font-family="sans-serif" font-size="14" lengthAdjust="spacing" textLength="176" x="100" y="127.9326">Waardepapieren Service</text><ellipse cx="191" cy="98.9375" fill="#FA4494" rx="12" ry="12" style="stroke:#181818;stroke-width:0.5;"/><line style="stroke:#181818;stroke-width:0.5;" x1="179" x2="203" y1="112.9375" y2="112.9375"/><text fill="#000000" font-family="sans-serif" font-size="14" lengthAdjust="spacing" textLength="176" x="100" y="367.8311">Waardepapieren Service</text><ellipse cx="191" cy="387.1328" fill="#FA4494" rx="12" ry="12" style="stroke:#181818;stroke-width:0.5;"/><line style="stroke:#181818;stroke-width:0.5;" x1="179" x2="203" y1="401.1328" y2="401.1328"/><text fill="#000000" font-family="sans-serif" font-size="14" lengthAdjust="spacing" textLength="184" x="351" y="127.9326">Waardepapieren Register</text><path d="M428,78.9375 C428,68.9375 446,68.9375 446,68.9375 C446,68.9375 464,68.9375 464,78.9375 L464,104.9375 C464,114.9375 446,114.9375 446,114.9375 C446,114.9375 428,114.9375 428,104.9375 L428,78.9375 " fill="#FA4494" style="stroke:#181818;stroke-width:1.5;"/><path d="M428,78.9375 C428,88.9375 446,88.9375 446,88.9375 C446,88.9375 464,88.9375 464,78.9375 " fill="none" style="stroke:#181818;stroke-width:1.5;"/><text fill="#000000" font-family="sans-serif" font-size="14" lengthAdjust="spacing" textLength="184" x="351" y="367.8311">Waardepapieren Register</text><path d="M428,381.1328 C428,371.1328 446,371.1328 446,371.1328 C446,371.1328 464,371.1328 464,381.1328 L464,407.1328 C464,417.1328 446,417.1328 446,417.1328 C446,417.1328 428,417.1328 428,407.1328 L428,381.1328 " fill="#FA4494" style="stroke:#181818;stroke-width:1.5;"/><path d="M428,381.1328 C428,391.1328 446,391.1328 446,391.1328 C446,391.1328 464,391.1328 464,381.1328 " fill="none" style="stroke:#181818;stroke-width:1.5;"/><polygon fill="#181818" points="434,158.3672,444,162.3672,434,166.3672,438,162.3672" style="stroke:#181818;stroke-width:1.0;"/><line style="stroke:#181818;stroke-width:1.0;" x1="191" x2="440" y1="162.3672" y2="162.3672"/><text fill="#000000" font-family="sans-serif" font-size="13" lengthAdjust="spacing" textLength="231" x="198" y="157.3013">Schrijft bij aanmaken een kopie weg</text><polygon fill="#181818" points="434,187.5,444,191.5,434,195.5,438,191.5" style="stroke:#181818;stroke-width:1.0;"/><line style="stroke:#181818;stroke-width:1.0;" x1="55" x2="440" y1="191.5" y2="191.5"/><text fill="#000000" font-family="sans-serif" font-size="13" lengthAdjust="spacing" textLength="167" x="62" y="186.4341">Vraagt geldigheid hash op</text><line style="stroke:#181818;stroke-width:1.0;" x1="446" x2="488" y1="220.6328" y2="220.6328"/><line style="stroke:#181818;stroke-width:1.0;" x1="488" x2="488" y1="220.6328" y2="233.6328"/><line style="stroke:#181818;stroke-width:1.0;" x1="447" x2="488" y1="233.6328" y2="233.6328"/><polygon fill="#181818" points="457,229.6328,447,233.6328,457,237.6328,453,233.6328" style="stroke:#181818;stroke-width:1.0;"/><text fill="#000000" font-family="sans-serif" font-size="13" lengthAdjust="spacing" textLength="429" x="453" y="215.5669">Kijkt of waardepapier aan de hand van hash gevonden kan worden</text><path d="M10,248.6328 L76,248.6328 L76,255.7656 L66,265.7656 L10,265.7656 L10,248.6328 " fill="#EEEEEE" style="stroke:#000000;stroke-width:1.5;"/><rect fill="none" height="90.2031" style="stroke:#000000;stroke-width:1.5;" width="541" x="10" y="248.6328"/><text fill="#000000" font-family="sans-serif" font-size="13" font-weight="bold" lengthAdjust="spacing" textLength="21" x="25" y="261.6997">alt</text><text fill="#000000" font-family="sans-serif" font-size="11" font-weight="bold" lengthAdjust="spacing" textLength="109" x="91" y="260.8433">[hash gevonden]</text><polygon fill="#181818" points="66,282.8984,56,286.8984,66,290.8984,62,286.8984" style="stroke:#181818;stroke-width:1.0;"/><line style="stroke:#181818;stroke-width:1.0;" x1="60" x2="445" y1="286.8984" y2="286.8984"/><text fill="#000000" font-family="sans-serif" font-size="13" lengthAdjust="spacing" textLength="132" x="72" y="281.8325">Waardepapier geldig</text><line style="stroke:#000000;stroke-width:1.0;stroke-dasharray:2.0,2.0;" x1="10" x2="551" y1="295.8984" y2="295.8984"/><text fill="#000000" font-family="sans-serif" font-size="11" font-weight="bold" lengthAdjust="spacing" textLength="140" x="15" y="306.1089">[hash niet gevonden]</text><polygon fill="#181818" points="66,326.8359,56,330.8359,66,334.8359,62,330.8359" style="stroke:#181818;stroke-width:1.0;"/><line style="stroke:#181818;stroke-width:1.0;" x1="60" x2="445" y1="330.8359" y2="330.8359"/><text fill="#000000" font-family="sans-serif" font-size="13" lengthAdjust="spacing" textLength="148" x="72" y="325.77">Waardepapier ongeldig</text><text fill="#888888" font-family="sans-serif" font-size="10" lengthAdjust="spacing" textLength="115" x="773" y="14.2822">Waardepapieren.app</text><text fill="#888888" font-family="sans-serif" font-size="10" lengthAdjust="spacing" textLength="115" x="386.5" y="441.415">Waardepapieren.app</text><!--SRC=[bP6nJiGm38PtFuLrp31ruGOaHiI2hjBTx6lSD6rnejHgnTlZScr5GGn4YXJP_lp_TZHepqUy46N7YLBWZ2-YcRkE1UeObVC-pV90AK73vFv80L2bCMDPaJodX7Sr5SLZ0ImQz0CFUmHBpcEe-80quEMjtCeTALrfu5_0YNqOpDT2d3O2Plp-QOuTJRt9eQqLhw558dadcmZPRXUj4KxiONMuCkTCv1KzzoxuXeF3XeO6Ou9PPgrw3Msd66kSlc_D9D2n0U9mjFSNwNcCucPDYqpHgiMsq-i-2u1s5ed5quy_kLa2u7xW6oo1zJyTecmzn7q2]--></g></svg>