<?xml version="1.0" encoding="us-ascii" standalone="no"?><svg xmlns="http://www.w3.org/2000/svg" xmlns:xlink="http://www.w3.org/1999/xlink" contentStyleType="text/css" height="444px" preserveAspectRatio="none" style="width:965px;height:444px;background:#FFFFFF;" version="1.1" viewBox="0 0 965 444" width="965px" zoomAndPan="magnify"><defs/><g><text fill="#000000" font-family="sans-serif" font-size="14" font-weight="bold" lengthAdjust="spacing" textLength="193" x="382" y="40.6357">Waardepapier Intrekken</text><line style="stroke:#181818;stroke-width:0.5;stroke-dasharray:5.0,5.0;" x1="55" x2="55" y1="131.2344" y2="348.8359"/><line style="stroke:#181818;stroke-width:0.5;stroke-dasharray:5.0,5.0;" x1="191" x2="191" y1="131.2344" y2="348.8359"/><line style="stroke:#181818;stroke-width:0.5;stroke-dasharray:5.0,5.0;" x1="446" x2="446" y1="131.2344" y2="348.8359"/><line style="stroke:#181818;stroke-width:0.5;stroke-dasharray:5.0,5.0;" x1="889" x2="889" y1="131.2344" y2="348.8359"/><text fill="#000000" font-family="sans-serif" font-size="14" lengthAdjust="spacing" textLength="64" x="20" y="127.9326">ScanApp</text><ellipse cx="55" cy="63.4375" fill="#FA4494" rx="8" ry="8" style="stroke:#181818;stroke-width:0.5;"/><path d="M55,71.4375 L55,98.4375 M42,79.4375 L68,79.4375 M55,98.4375 L42,113.4375 M55,98.4375 L68,113.4375 " fill="none" style="stroke:#181818;stroke-width:0.5;"/><text fill="#000000" font-family="sans-serif" font-size="14" lengthAdjust="spacing" textLength="64" x="20" y="360.8311">ScanApp</text><ellipse cx="55" cy="372.6328" fill="#FA4494" rx="8" ry="8" style="stroke:#181818;stroke-width:0.5;"/><path d="M55,380.6328 L55,407.6328 M42,388.6328 L68,388.6328 M55,407.6328 L42,422.6328 M55,407.6328 L68,422.6328 " fill="none" style="stroke:#181818;stroke-width:0.5;"/><text fill="#000000" font-family="sans-serif" font-size="14" lengthAdjust="spacing" textLength="176" x="100" y="127.9326">Waardepapieren Service</text><ellipse cx="191" cy="98.9375" fill="#FA4494" rx="12" ry="12" style="stroke:#181818;stroke-width:0.5;"/><line style="stroke:#181818;stroke-width:0.5;" x1="179" x2="203" y1="112.9375" y2="112.9375"/><text fill="#000000" font-family="sans-serif" font-size="14" lengthAdjust="spacing" textLength="176" x="100" y="360.8311">Waardepapieren Service</text><ellipse cx="191" cy="380.1328" fill="#FA4494" rx="12" ry="12" style="stroke:#181818;stroke-width:0.5;"/><line style="stroke:#181818;stroke-width:0.5;" x1="179" x2="203" y1="394.1328" y2="394.1328"/><text fill="#000000" font-family="sans-serif" font-size="14" lengthAdjust="spacing" textLength="184" x="351" y="127.9326">Waardepapieren Register</text><ellipse cx="446" cy="98.9375" fill="#FA4494" rx="12" ry="12" style="stroke:#181818;stroke-width:0.5;"/><line style="stroke:#181818;stroke-width:0.5;" x1="434" x2="458" y1="112.9375" y2="112.9375"/><text fill="#000000" font-family="sans-serif" font-size="14" lengthAdjust="spacing" textLength="184" x="351" y="360.8311">Waardepapieren Register</text><ellipse cx="446" cy="380.1328" fill="#FA4494" rx="12" ry="12" style="stroke:#181818;stroke-width:0.5;"/><line style="stroke:#181818;stroke-width:0.5;" x1="434" x2="458" y1="394.1328" y2="394.1328"/><text fill="#000000" font-family="sans-serif" font-size="14" lengthAdjust="spacing" textLength="122" x="825" y="127.9326">Haalcentraal BRP</text><path d="M871,78.9375 C871,68.9375 889,68.9375 889,68.9375 C889,68.9375 907,68.9375 907,78.9375 L907,104.9375 C907,114.9375 889,114.9375 889,114.9375 C889,114.9375 871,114.9375 871,104.9375 L871,78.9375 " fill="#26B8E6" style="stroke:#181818;stroke-width:1.5;"/><path d="M871,78.9375 C871,88.9375 889,88.9375 889,88.9375 C889,88.9375 907,88.9375 907,78.9375 " fill="none" style="stroke:#181818;stroke-width:1.5;"/><text fill="#000000" font-family="sans-serif" font-size="14" lengthAdjust="spacing" textLength="122" x="825" y="360.8311">Haalcentraal BRP</text><path d="M871,374.1328 C871,364.1328 889,364.1328 889,364.1328 C889,364.1328 907,364.1328 907,374.1328 L907,400.1328 C907,410.1328 889,410.1328 889,410.1328 C889,410.1328 871,410.1328 871,400.1328 L871,374.1328 " fill="#26B8E6" style="stroke:#181818;stroke-width:1.5;"/><path d="M871,374.1328 C871,384.1328 889,384.1328 889,384.1328 C889,384.1328 907,384.1328 907,374.1328 " fill="none" style="stroke:#181818;stroke-width:1.5;"/><polygon fill="#181818" points="434,158.3672,444,162.3672,434,166.3672,438,162.3672" style="stroke:#181818;stroke-width:1.0;"/><line style="stroke:#181818;stroke-width:1.0;" x1="191" x2="440" y1="162.3672" y2="162.3672"/><text fill="#000000" font-family="sans-serif" font-size="13" lengthAdjust="spacing" textLength="231" x="198" y="157.3013">Schrijft bij aanmaken een kopie weg</text><polygon fill="#181818" points="434,187.5,444,191.5,434,195.5,438,191.5" style="stroke:#181818;stroke-width:1.0;"/><line style="stroke:#181818;stroke-width:1.0;" x1="55" x2="440" y1="191.5" y2="191.5"/><text fill="#000000" font-family="sans-serif" font-size="13" lengthAdjust="spacing" textLength="167" x="62" y="186.4341">Vraagt geldigheid hash op</text><line style="stroke:#181818;stroke-width:1.0;" x1="446" x2="488" y1="220.6328" y2="220.6328"/><line style="stroke:#181818;stroke-width:1.0;" x1="488" x2="488" y1="220.6328" y2="233.6328"/><line style="stroke:#181818;stroke-width:1.0;" x1="447" x2="488" y1="233.6328" y2="233.6328"/><polygon fill="#181818" points="457,229.6328,447,233.6328,457,237.6328,453,233.6328" style="stroke:#181818;stroke-width:1.0;"/><text fill="#000000" font-family="sans-serif" font-size="13" lengthAdjust="spacing" textLength="429" x="453" y="215.5669">Kijkt of waardepapier aan de hand van hash gevonden kan worden</text><polygon fill="#181818" points="66,282.8984,56,286.8984,66,290.8984,62,286.8984" style="stroke:#181818;stroke-width:1.0;"/><line style="stroke:#181818;stroke-width:1.0;" x1="60" x2="445" y1="286.8984" y2="286.8984"/><text fill="#000000" font-family="sans-serif" font-size="13" lengthAdjust="spacing" textLength="132" x="72" y="281.8325">Waardepapier geldig</text><polygon fill="#181818" points="66,326.8359,56,330.8359,66,334.8359,62,330.8359" style="stroke:#181818;stroke-width:1.0;"/><line style="stroke:#181818;stroke-width:1.0;" x1="60" x2="445" y1="330.8359" y2="330.8359"/><text fill="#000000" font-family="sans-serif" font-size="13" lengthAdjust="spacing" textLength="148" x="72" y="325.77">Waardepapier ongeldig</text><text fill="#888888" font-family="sans-serif" font-size="10" lengthAdjust="spacing" textLength="115" x="842" y="14.2822">Waardepapieren.app</text><text fill="#888888" font-family="sans-serif" font-size="10" lengthAdjust="spacing" textLength="115" x="421" y="434.415">Waardepapieren.app</text><!--SRC=[ZP51IyGm48Nl-HL3zwm7AOlkGT3JYfUb1VSyRQPfsfY4T6ZntplTRiKAeeSm8VE-UIy9MtPqW3DYqXGnMahmuZbHtvDNJGXCQTicVuingfPG_z9I2ciE2SeQ_LECi6impnzoHPujVq2sHQ2aDDgQCi01pgVoBtb1nWwIwgelllGQ6IiS2B8Zegi5JrBXkJXTf59XTxUlxcal2MUZcyUPFqZEDjckOQXi1uZ-7UNkGBBw8AOmaL7hNLRcJMOR1aDEMzEIrT3Yq4A8QewqgbvjrpE41gRlxoiMe4a0hs6K_OKqD0QlPqyvcOAelKB7s-Ow_9hcnxyjOHIvWHRCM-9_ii4lz2S0]--></g></svg>