<?xml version="1.0" encoding="us-ascii" standalone="no"?><svg xmlns="http://www.w3.org/2000/svg" xmlns:xlink="http://www.w3.org/1999/xlink" contentStyleType="text/css" height="551px" preserveAspectRatio="none" style="width:1243px;height:551px;" version="1.1" viewBox="0 0 1243 551" width="1243px" zoomAndPan="magnify"><defs/><g><text fill="#000000" font-family="sans-serif" font-size="14" font-weight="bold" lengthAdjust="spacing" textLength="155" x="540" y="40.6357">ZGW Waardepapier</text><line style="stroke:#181818;stroke-width:0.5;stroke-dasharray:5.0,5.0;" x1="36" x2="36" y1="131.2344" y2="455.5625"/><line style="stroke:#181818;stroke-width:0.5;stroke-dasharray:5.0,5.0;" x1="317" x2="317" y1="131.2344" y2="455.5625"/><line style="stroke:#181818;stroke-width:0.5;stroke-dasharray:5.0,5.0;" x1="556" x2="556" y1="131.2344" y2="455.5625"/><line style="stroke:#181818;stroke-width:0.5;stroke-dasharray:5.0,5.0;" x1="777" x2="777" y1="131.2344" y2="455.5625"/><line style="stroke:#181818;stroke-width:0.5;stroke-dasharray:5.0,5.0;" x1="964" x2="964" y1="131.2344" y2="455.5625"/><line style="stroke:#181818;stroke-width:0.5;stroke-dasharray:5.0,5.0;" x1="1167" x2="1167" y1="131.2344" y2="455.5625"/><text fill="#000000" font-family="sans-serif" font-size="14" lengthAdjust="spacing" textLength="57" x="5" y="127.9326">Inwoner</text><ellipse cx="36.5" cy="63.4375" fill="#00377A" rx="8" ry="8" style="stroke:#181818;stroke-width:0.5;"/><path d="M36.5,71.4375 L36.5,98.4375 M23.5,79.4375 L49.5,79.4375 M36.5,98.4375 L23.5,113.4375 M36.5,98.4375 L49.5,113.4375 " fill="none" style="stroke:#181818;stroke-width:0.5;"/><text fill="#000000" font-family="sans-serif" font-size="14" lengthAdjust="spacing" textLength="57" x="5" y="467.5576">Inwoner</text><ellipse cx="36.5" cy="479.3594" fill="#00377A" rx="8" ry="8" style="stroke:#181818;stroke-width:0.5;"/><path d="M36.5,487.3594 L36.5,514.3594 M23.5,495.3594 L49.5,495.3594 M36.5,514.3594 L23.5,529.3594 M36.5,514.3594 L49.5,529.3594 " fill="none" style="stroke:#181818;stroke-width:0.5;"/><text fill="#000000" font-family="sans-serif" font-size="14" lengthAdjust="spacing" textLength="203" x="213" y="127.9326">Zaak registratie component</text><path d="M299.5,78.9375 C299.5,68.9375 317.5,68.9375 317.5,68.9375 C317.5,68.9375 335.5,68.9375 335.5,78.9375 L335.5,104.9375 C335.5,114.9375 317.5,114.9375 317.5,114.9375 C317.5,114.9375 299.5,114.9375 299.5,104.9375 L299.5,78.9375 " fill="#00377A" style="stroke:#181818;stroke-width:1.5;"/><path d="M299.5,78.9375 C299.5,88.9375 317.5,88.9375 317.5,88.9375 C317.5,88.9375 335.5,88.9375 335.5,78.9375 " fill="none" style="stroke:#181818;stroke-width:1.5;"/><text fill="#000000" font-family="sans-serif" font-size="14" lengthAdjust="spacing" textLength="203" x="213" y="467.5576">Zaak registratie component</text><path d="M299.5,480.8594 C299.5,470.8594 317.5,470.8594 317.5,470.8594 C317.5,470.8594 335.5,470.8594 335.5,480.8594 L335.5,506.8594 C335.5,516.8594 317.5,516.8594 317.5,516.8594 C317.5,516.8594 299.5,516.8594 299.5,506.8594 L299.5,480.8594 " fill="#00377A" style="stroke:#181818;stroke-width:1.5;"/><path d="M299.5,480.8594 C299.5,490.8594 317.5,490.8594 317.5,490.8594 C317.5,490.8594 335.5,490.8594 335.5,480.8594 " fill="none" style="stroke:#181818;stroke-width:1.5;"/><text fill="#000000" font-family="sans-serif" font-size="14" lengthAdjust="spacing" textLength="243" x="432" y="127.9326">Document registratie component</text><path d="M538.5,78.9375 C538.5,68.9375 556.5,68.9375 556.5,68.9375 C556.5,68.9375 574.5,68.9375 574.5,78.9375 L574.5,104.9375 C574.5,114.9375 556.5,114.9375 556.5,114.9375 C556.5,114.9375 538.5,114.9375 538.5,104.9375 L538.5,78.9375 " fill="#00377A" style="stroke:#181818;stroke-width:1.5;"/><path d="M538.5,78.9375 C538.5,88.9375 556.5,88.9375 556.5,88.9375 C556.5,88.9375 574.5,88.9375 574.5,78.9375 " fill="none" style="stroke:#181818;stroke-width:1.5;"/><text fill="#000000" font-family="sans-serif" font-size="14" lengthAdjust="spacing" textLength="243" x="432" y="467.5576">Document registratie component</text><path d="M538.5,480.8594 C538.5,470.8594 556.5,470.8594 556.5,470.8594 C556.5,470.8594 574.5,470.8594 574.5,480.8594 L574.5,506.8594 C574.5,516.8594 556.5,516.8594 556.5,516.8594 C556.5,516.8594 538.5,516.8594 538.5,506.8594 L538.5,480.8594 " fill="#00377A" style="stroke:#181818;stroke-width:1.5;"/><path d="M538.5,480.8594 C538.5,490.8594 556.5,490.8594 556.5,490.8594 C556.5,490.8594 574.5,490.8594 574.5,480.8594 " fill="none" style="stroke:#181818;stroke-width:1.5;"/><text fill="#000000" font-family="sans-serif" font-size="14" lengthAdjust="spacing" textLength="166" x="691" y="127.9326">Notificatie Component</text><ellipse cx="777" cy="98.9375" fill="#00377A" rx="12" ry="12" style="stroke:#181818;stroke-width:0.5;"/><line style="stroke:#181818;stroke-width:0.5;" x1="765" x2="789" y1="112.9375" y2="112.9375"/><text fill="#000000" font-family="sans-serif" font-size="14" lengthAdjust="spacing" textLength="166" x="691" y="467.5576">Notificatie Component</text><ellipse cx="777" cy="486.8594" fill="#00377A" rx="12" ry="12" style="stroke:#181818;stroke-width:0.5;"/><line style="stroke:#181818;stroke-width:0.5;" x1="765" x2="789" y1="500.8594" y2="500.8594"/><text fill="#000000" font-family="sans-serif" font-size="14" lengthAdjust="spacing" textLength="176" x="873" y="127.9326">Waardepapieren Service</text><ellipse cx="964" cy="98.9375" fill="#FA4494" rx="12" ry="12" style="stroke:#181818;stroke-width:0.5;"/><line style="stroke:#181818;stroke-width:0.5;" x1="952" x2="976" y1="112.9375" y2="112.9375"/><text fill="#000000" font-family="sans-serif" font-size="14" lengthAdjust="spacing" textLength="176" x="873" y="467.5576">Waardepapieren Service</text><ellipse cx="964" cy="486.8594" fill="#FA4494" rx="12" ry="12" style="stroke:#181818;stroke-width:0.5;"/><line style="stroke:#181818;stroke-width:0.5;" x1="952" x2="976" y1="500.8594" y2="500.8594"/><text fill="#000000" font-family="sans-serif" font-size="14" lengthAdjust="spacing" textLength="122" x="1103" y="127.9326">Haalcentraal BRP</text><path d="M1149,78.9375 C1149,68.9375 1167,68.9375 1167,68.9375 C1167,68.9375 1185,68.9375 1185,78.9375 L1185,104.9375 C1185,114.9375 1167,114.9375 1167,114.9375 C1167,114.9375 1149,114.9375 1149,104.9375 L1149,78.9375 " fill="#26B8E6" style="stroke:#181818;stroke-width:1.5;"/><path d="M1149,78.9375 C1149,88.9375 1167,88.9375 1167,88.9375 C1167,88.9375 1185,88.9375 1185,78.9375 " fill="none" style="stroke:#181818;stroke-width:1.5;"/><text fill="#000000" font-family="sans-serif" font-size="14" lengthAdjust="spacing" textLength="122" x="1103" y="467.5576">Haalcentraal BRP</text><path d="M1149,480.8594 C1149,470.8594 1167,470.8594 1167,470.8594 C1167,470.8594 1185,470.8594 1185,480.8594 L1185,506.8594 C1185,516.8594 1167,516.8594 1167,516.8594 C1167,516.8594 1149,516.8594 1149,506.8594 L1149,480.8594 " fill="#26B8E6" style="stroke:#181818;stroke-width:1.5;"/><path d="M1149,480.8594 C1149,490.8594 1167,490.8594 1167,490.8594 C1167,490.8594 1185,490.8594 1185,480.8594 " fill="none" style="stroke:#181818;stroke-width:1.5;"/><polygon fill="#181818" points="305.5,158.3672,315.5,162.3672,305.5,166.3672,309.5,162.3672" style="stroke:#181818;stroke-width:1.0;"/><line style="stroke:#181818;stroke-width:1.0;" x1="36.5" x2="311.5" y1="162.3672" y2="162.3672"/><text fill="#000000" font-family="sans-serif" font-size="13" lengthAdjust="spacing" textLength="257" x="43.5" y="157.3013">Maakt Zaak aan (e.g. via web formulier)</text><polygon fill="#181818" points="765,187.5,775,191.5,765,195.5,769,191.5" style="stroke:#181818;stroke-width:1.0;"/><line style="stroke:#181818;stroke-width:1.0;" x1="317.5" x2="771" y1="191.5" y2="191.5"/><text fill="#000000" font-family="sans-serif" font-size="13" lengthAdjust="spacing" textLength="69" x="324.5" y="186.4341">Notificeerd</text><polygon fill="#181818" points="952,216.6328,962,220.6328,952,224.6328,956,220.6328" style="stroke:#181818;stroke-width:1.0;"/><line style="stroke:#181818;stroke-width:1.0;" x1="777" x2="958" y1="220.6328" y2="220.6328"/><text fill="#000000" font-family="sans-serif" font-size="13" lengthAdjust="spacing" textLength="69" x="784" y="215.5669">Notificeerd</text><polygon fill="#181818" points="328.5,245.7656,318.5,249.7656,328.5,253.7656,324.5,249.7656" style="stroke:#181818;stroke-width:1.0;"/><line style="stroke:#181818;stroke-width:1.0;" x1="322.5" x2="963" y1="249.7656" y2="249.7656"/><text fill="#000000" font-family="sans-serif" font-size="13" lengthAdjust="spacing" textLength="90" x="334.5" y="244.6997">Haalt Zaak op</text><polygon fill="#181818" points="1155,274.8984,1165,278.8984,1155,282.8984,1159,278.8984" style="stroke:#181818;stroke-width:1.0;"/><line style="stroke:#181818;stroke-width:1.0;" x1="964" x2="1161" y1="278.8984" y2="278.8984"/><text fill="#000000" font-family="sans-serif" font-size="13" lengthAdjust="spacing" textLength="179" x="971" y="273.8325">Haalt Persoonsgegevens op</text><line style="stroke:#181818;stroke-width:1.0;" x1="964" x2="1006" y1="308.0313" y2="308.0313"/><line style="stroke:#181818;stroke-width:1.0;" x1="1006" x2="1006" y1="308.0313" y2="321.0313"/><line style="stroke:#181818;stroke-width:1.0;" x1="965" x2="1006" y1="321.0313" y2="321.0313"/><polygon fill="#181818" points="975,317.0313,965,321.0313,975,325.0313,971,321.0313" style="stroke:#181818;stroke-width:1.0;"/><text fill="#000000" font-family="sans-serif" font-size="13" lengthAdjust="spacing" textLength="135" x="971" y="302.9653">Creerd waardepapier</text><polygon fill="#181818" points="567.5,346.1641,557.5,350.1641,567.5,354.1641,563.5,350.1641" style="stroke:#181818;stroke-width:1.0;"/><line style="stroke:#181818;stroke-width:1.0;" x1="561.5" x2="963" y1="350.1641" y2="350.1641"/><text fill="#000000" font-family="sans-serif" font-size="13" lengthAdjust="spacing" textLength="131" x="573.5" y="345.0981">Plaats waardepapier</text><polygon fill="#181818" points="328.5,375.2969,318.5,379.2969,328.5,383.2969,324.5,379.2969" style="stroke:#181818;stroke-width:1.0;"/><line style="stroke:#181818;stroke-width:1.0;" x1="322.5" x2="963" y1="379.2969" y2="379.2969"/><text fill="#000000" font-family="sans-serif" font-size="13" lengthAdjust="spacing" textLength="67" x="334.5" y="374.231">Zet status</text><polygon fill="#181818" points="47.5,404.4297,37.5,408.4297,47.5,412.4297,43.5,408.4297" style="stroke:#181818;stroke-width:1.0;"/><line style="stroke:#181818;stroke-width:1.0;" x1="41.5" x2="316.5" y1="408.4297" y2="408.4297"/><text fill="#000000" font-family="sans-serif" font-size="13" lengthAdjust="spacing" textLength="217" x="53.5" y="403.3638">Burger bekijkt zaak via Mijn Zaken</text><polygon fill="#181818" points="47.5,433.5625,37.5,437.5625,47.5,441.5625,43.5,437.5625" style="stroke:#181818;stroke-width:1.0;"/><line style="stroke:#181818;stroke-width:1.0;" x1="41.5" x2="555.5" y1="437.5625" y2="437.5625"/><text fill="#000000" font-family="sans-serif" font-size="13" lengthAdjust="spacing" textLength="275" x="53.5" y="432.4966">Burger bekijkt waardepapier via Mijn Zaken</text><text fill="#888888" font-family="sans-serif" font-size="10" lengthAdjust="spacing" textLength="115" x="1120" y="14.2822">Waardepapieren.app</text><text fill="#888888" font-family="sans-serif" font-size="10" lengthAdjust="spacing" textLength="115" x="560" y="541.1416">Waardepapieren.app</text><!--SRC=[VL9DJy904BtlhvZ0HGyIeWIq1m-qYNg0D7WWuJPjXxgqtMrsfn3vzKuhH53ajCdxc7bligovf01MBqjO8hgCQgmrERMsbia5Po2P0TQr-Y3C_g5yeKsD3Yj8C2roPnkJXRQq3jYXyKAHOQKmPO7UpCuQSe0UGirwJmRwm-73P88gGyO4FK5lXLY0ernxcS2Q8BLLBJR3lTQuMeGNJ95DcqeaLupHYL4mpP_GcrlMQvrswl1CFVyhFcyFx-IsEgLElOoXlyRHw6bqakaLiKp5xEI5wIBkbF92_twSFD9OgUCHxfwxMW7Cf3j3Tm540pSqo0UmrGWxIc1jNTMKilnMjMenpSC03XM8NARc7RgCpr49zxqWW3RIORwj3uGaEX8nEM-jyJdbj2NZVqJjpD2rus1t-cc-sQYT7PU8x2_HtUeLCNX6Rlmn_Q5z0DF6vV8h4YhqHkhlstXjwPdU60bRa57HTSlfqb_MBm00]--></g></svg>