<?xml version="1.0" encoding="us-ascii" standalone="no"?><svg xmlns="http://www.w3.org/2000/svg" xmlns:xlink="http://www.w3.org/1999/xlink" contentStyleType="text/css" height="668px" preserveAspectRatio="none" style="width:1300px;height:668px;background:#FFFFFF;" version="1.1" viewBox="0 0 1300 668" width="1300px" zoomAndPan="magnify"><defs/><g><text fill="#000000" font-family="sans-serif" font-size="14" font-weight="bold" lengthAdjust="spacing" textLength="155" x="568.5" y="40.6357">ZGW Waardepapier</text><line style="stroke:#181818;stroke-width:0.5;stroke-dasharray:5.0,5.0;" x1="33" x2="33" y1="131.2344" y2="572.0938"/><line style="stroke:#181818;stroke-width:0.5;stroke-dasharray:5.0,5.0;" x1="314" x2="314" y1="131.2344" y2="572.0938"/><line style="stroke:#181818;stroke-width:0.5;stroke-dasharray:5.0,5.0;" x1="553" x2="553" y1="131.2344" y2="572.0938"/><line style="stroke:#181818;stroke-width:0.5;stroke-dasharray:5.0,5.0;" x1="774" x2="774" y1="131.2344" y2="572.0938"/><line style="stroke:#181818;stroke-width:0.5;stroke-dasharray:5.0,5.0;" x1="961" x2="961" y1="131.2344" y2="572.0938"/><line style="stroke:#181818;stroke-width:0.5;stroke-dasharray:5.0,5.0;" x1="1164" x2="1164" y1="131.2344" y2="572.0938"/><line style="stroke:#181818;stroke-width:0.5;stroke-dasharray:5.0,5.0;" x1="1263" x2="1263" y1="131.2344" y2="572.0938"/><text fill="#000000" font-family="sans-serif" font-size="14" lengthAdjust="spacing" textLength="51" x="5" y="127.9326">Citizen</text><ellipse cx="33.5" cy="63.4375" fill="#E2E2F0" rx="8" ry="8" style="stroke:#181818;stroke-width:0.5;"/><path d="M33.5,71.4375 L33.5,98.4375 M20.5,79.4375 L46.5,79.4375 M33.5,98.4375 L20.5,113.4375 M33.5,98.4375 L46.5,113.4375 " fill="none" style="stroke:#181818;stroke-width:0.5;"/><text fill="#000000" font-family="sans-serif" font-size="14" lengthAdjust="spacing" textLength="51" x="5" y="584.0889">Citizen</text><ellipse cx="33.5" cy="595.8906" fill="#E2E2F0" rx="8" ry="8" style="stroke:#181818;stroke-width:0.5;"/><path d="M33.5,603.8906 L33.5,630.8906 M20.5,611.8906 L46.5,611.8906 M33.5,630.8906 L20.5,645.8906 M33.5,630.8906 L46.5,645.8906 " fill="none" style="stroke:#181818;stroke-width:0.5;"/><text fill="#000000" font-family="sans-serif" font-size="14" lengthAdjust="spacing" textLength="203" x="210" y="127.9326">Zaak registratie component</text><path d="M296.5,78.9375 C296.5,68.9375 314.5,68.9375 314.5,68.9375 C314.5,68.9375 332.5,68.9375 332.5,78.9375 L332.5,104.9375 C332.5,114.9375 314.5,114.9375 314.5,114.9375 C314.5,114.9375 296.5,114.9375 296.5,104.9375 L296.5,78.9375 " fill="#E2E2F0" style="stroke:#181818;stroke-width:1.5;"/><path d="M296.5,78.9375 C296.5,88.9375 314.5,88.9375 314.5,88.9375 C314.5,88.9375 332.5,88.9375 332.5,78.9375 " fill="none" style="stroke:#181818;stroke-width:1.5;"/><text fill="#000000" font-family="sans-serif" font-size="14" lengthAdjust="spacing" textLength="203" x="210" y="584.0889">Zaak registratie component</text><path d="M296.5,597.3906 C296.5,587.3906 314.5,587.3906 314.5,587.3906 C314.5,587.3906 332.5,587.3906 332.5,597.3906 L332.5,623.3906 C332.5,633.3906 314.5,633.3906 314.5,633.3906 C314.5,633.3906 296.5,633.3906 296.5,623.3906 L296.5,597.3906 " fill="#E2E2F0" style="stroke:#181818;stroke-width:1.5;"/><path d="M296.5,597.3906 C296.5,607.3906 314.5,607.3906 314.5,607.3906 C314.5,607.3906 332.5,607.3906 332.5,597.3906 " fill="none" style="stroke:#181818;stroke-width:1.5;"/><text fill="#000000" font-family="sans-serif" font-size="14" lengthAdjust="spacing" textLength="243" x="429" y="127.9326">Document registratie component</text><path d="M535.5,78.9375 C535.5,68.9375 553.5,68.9375 553.5,68.9375 C553.5,68.9375 571.5,68.9375 571.5,78.9375 L571.5,104.9375 C571.5,114.9375 553.5,114.9375 553.5,114.9375 C553.5,114.9375 535.5,114.9375 535.5,104.9375 L535.5,78.9375 " fill="#E2E2F0" style="stroke:#181818;stroke-width:1.5;"/><path d="M535.5,78.9375 C535.5,88.9375 553.5,88.9375 553.5,88.9375 C553.5,88.9375 571.5,88.9375 571.5,78.9375 " fill="none" style="stroke:#181818;stroke-width:1.5;"/><text fill="#000000" font-family="sans-serif" font-size="14" lengthAdjust="spacing" textLength="243" x="429" y="584.0889">Document registratie component</text><path d="M535.5,597.3906 C535.5,587.3906 553.5,587.3906 553.5,587.3906 C553.5,587.3906 571.5,587.3906 571.5,597.3906 L571.5,623.3906 C571.5,633.3906 553.5,633.3906 553.5,633.3906 C553.5,633.3906 535.5,633.3906 535.5,623.3906 L535.5,597.3906 " fill="#E2E2F0" style="stroke:#181818;stroke-width:1.5;"/><path d="M535.5,597.3906 C535.5,607.3906 553.5,607.3906 553.5,607.3906 C553.5,607.3906 571.5,607.3906 571.5,597.3906 " fill="none" style="stroke:#181818;stroke-width:1.5;"/><text fill="#000000" font-family="sans-serif" font-size="14" lengthAdjust="spacing" textLength="166" x="688" y="127.9326">Notificatie Component</text><ellipse cx="774" cy="98.9375" fill="#E2E2F0" rx="12" ry="12" style="stroke:#181818;stroke-width:0.5;"/><line style="stroke:#181818;stroke-width:0.5;" x1="762" x2="786" y1="112.9375" y2="112.9375"/><text fill="#000000" font-family="sans-serif" font-size="14" lengthAdjust="spacing" textLength="166" x="688" y="584.0889">Notificatie Component</text><ellipse cx="774" cy="603.3906" fill="#E2E2F0" rx="12" ry="12" style="stroke:#181818;stroke-width:0.5;"/><line style="stroke:#181818;stroke-width:0.5;" x1="762" x2="786" y1="617.3906" y2="617.3906"/><text fill="#000000" font-family="sans-serif" font-size="14" lengthAdjust="spacing" textLength="176" x="870" y="127.9326">Waardepapieren Service</text><ellipse cx="961" cy="98.9375" fill="#E2E2F0" rx="12" ry="12" style="stroke:#181818;stroke-width:0.5;"/><line style="stroke:#181818;stroke-width:0.5;" x1="949" x2="973" y1="112.9375" y2="112.9375"/><text fill="#000000" font-family="sans-serif" font-size="14" lengthAdjust="spacing" textLength="176" x="870" y="584.0889">Waardepapieren Service</text><ellipse cx="961" cy="603.3906" fill="#E2E2F0" rx="12" ry="12" style="stroke:#181818;stroke-width:0.5;"/><line style="stroke:#181818;stroke-width:0.5;" x1="949" x2="973" y1="617.3906" y2="617.3906"/><text fill="#000000" font-family="sans-serif" font-size="14" lengthAdjust="spacing" textLength="122" x="1100" y="127.9326">Haalcentraal BRP</text><path d="M1146,78.9375 C1146,68.9375 1164,68.9375 1164,68.9375 C1164,68.9375 1182,68.9375 1182,78.9375 L1182,104.9375 C1182,114.9375 1164,114.9375 1164,114.9375 C1164,114.9375 1146,114.9375 1146,104.9375 L1146,78.9375 " fill="#E2E2F0" style="stroke:#181818;stroke-width:1.5;"/><path d="M1146,78.9375 C1146,88.9375 1164,88.9375 1164,88.9375 C1164,88.9375 1182,88.9375 1182,78.9375 " fill="none" style="stroke:#181818;stroke-width:1.5;"/><text fill="#000000" font-family="sans-serif" font-size="14" lengthAdjust="spacing" textLength="122" x="1100" y="584.0889">Haalcentraal BRP</text><path d="M1146,597.3906 C1146,587.3906 1164,587.3906 1164,587.3906 C1164,587.3906 1182,587.3906 1182,597.3906 L1182,623.3906 C1182,633.3906 1164,633.3906 1164,633.3906 C1164,633.3906 1146,633.3906 1146,623.3906 L1146,597.3906 " fill="#E2E2F0" style="stroke:#181818;stroke-width:1.5;"/><path d="M1146,597.3906 C1146,607.3906 1164,607.3906 1164,607.3906 C1164,607.3906 1182,607.3906 1182,597.3906 " fill="none" style="stroke:#181818;stroke-width:1.5;"/><text fill="#000000" font-family="sans-serif" font-size="14" lengthAdjust="spacing" textLength="44" x="1238" y="127.9326">Notify</text><ellipse cx="1263" cy="98.9375" fill="#E2E2F0" rx="12" ry="12" style="stroke:#181818;stroke-width:0.5;"/><line style="stroke:#181818;stroke-width:0.5;" x1="1251" x2="1275" y1="112.9375" y2="112.9375"/><text fill="#000000" font-family="sans-serif" font-size="14" lengthAdjust="spacing" textLength="44" x="1238" y="584.0889">Notify</text><ellipse cx="1263" cy="603.3906" fill="#E2E2F0" rx="12" ry="12" style="stroke:#181818;stroke-width:0.5;"/><line style="stroke:#181818;stroke-width:0.5;" x1="1251" x2="1275" y1="617.3906" y2="617.3906"/><polygon fill="#181818" points="302.5,158.3672,312.5,162.3672,302.5,166.3672,306.5,162.3672" style="stroke:#181818;stroke-width:1.0;"/><line style="stroke:#181818;stroke-width:1.0;" x1="33.5" x2="308.5" y1="162.3672" y2="162.3672"/><text fill="#000000" font-family="sans-serif" font-size="13" lengthAdjust="spacing" textLength="257" x="40.5" y="157.3013">Maakt Zaak aan (e.g. via web formulier)</text><polygon fill="#181818" points="762,187.5,772,191.5,762,195.5,766,191.5" style="stroke:#181818;stroke-width:1.0;"/><line style="stroke:#181818;stroke-width:1.0;" x1="314.5" x2="768" y1="191.5" y2="191.5"/><text fill="#000000" font-family="sans-serif" font-size="13" lengthAdjust="spacing" textLength="69" x="321.5" y="186.4341">Notificeerd</text><polygon fill="#181818" points="949,216.6328,959,220.6328,949,224.6328,953,220.6328" style="stroke:#181818;stroke-width:1.0;"/><line style="stroke:#181818;stroke-width:1.0;" x1="774" x2="955" y1="220.6328" y2="220.6328"/><text fill="#000000" font-family="sans-serif" font-size="13" lengthAdjust="spacing" textLength="69" x="781" y="215.5669">Notificeerd</text><polygon fill="#181818" points="325.5,245.7656,315.5,249.7656,325.5,253.7656,321.5,249.7656" style="stroke:#181818;stroke-width:1.0;"/><line style="stroke:#181818;stroke-width:1.0;" x1="319.5" x2="960" y1="249.7656" y2="249.7656"/><text fill="#000000" font-family="sans-serif" font-size="13" lengthAdjust="spacing" textLength="90" x="331.5" y="244.6997">Haalt Zaak op</text><polygon fill="#181818" points="1152,274.8984,1162,278.8984,1152,282.8984,1156,278.8984" style="stroke:#181818;stroke-width:1.0;"/><line style="stroke:#181818;stroke-width:1.0;" x1="961" x2="1158" y1="278.8984" y2="278.8984"/><text fill="#000000" font-family="sans-serif" font-size="13" lengthAdjust="spacing" textLength="179" x="968" y="273.8325">Haalt Persoonsgegevens op</text><line style="stroke:#181818;stroke-width:1.0;" x1="961" x2="1003" y1="308.0313" y2="308.0313"/><line style="stroke:#181818;stroke-width:1.0;" x1="1003" x2="1003" y1="308.0313" y2="321.0313"/><line style="stroke:#181818;stroke-width:1.0;" x1="962" x2="1003" y1="321.0313" y2="321.0313"/><polygon fill="#181818" points="972,317.0313,962,321.0313,972,325.0313,968,321.0313" style="stroke:#181818;stroke-width:1.0;"/><text fill="#000000" font-family="sans-serif" font-size="13" lengthAdjust="spacing" textLength="135" x="968" y="302.9653">Creerd waardepapier</text><polygon fill="#181818" points="564.5,346.1641,554.5,350.1641,564.5,354.1641,560.5,350.1641" style="stroke:#181818;stroke-width:1.0;"/><line style="stroke:#181818;stroke-width:1.0;" x1="558.5" x2="960" y1="350.1641" y2="350.1641"/><text fill="#000000" font-family="sans-serif" font-size="13" lengthAdjust="spacing" textLength="131" x="570.5" y="345.0981">Plaats waardepapier</text><polygon fill="#181818" points="325.5,375.2969,315.5,379.2969,325.5,383.2969,321.5,379.2969" style="stroke:#181818;stroke-width:1.0;"/><line style="stroke:#181818;stroke-width:1.0;" x1="319.5" x2="960" y1="379.2969" y2="379.2969"/><text fill="#000000" font-family="sans-serif" font-size="13" lengthAdjust="spacing" textLength="67" x="331.5" y="374.231">Zet status</text><polygon fill="#181818" points="762,404.4297,772,408.4297,762,412.4297,766,408.4297" style="stroke:#181818;stroke-width:1.0;"/><line style="stroke:#181818;stroke-width:1.0;" x1="314.5" x2="768" y1="408.4297" y2="408.4297"/><text fill="#000000" font-family="sans-serif" font-size="13" lengthAdjust="spacing" textLength="69" x="321.5" y="403.3638">Notificeerd</text><polygon fill="#181818" points="1251,433.5625,1261,437.5625,1251,441.5625,1255,437.5625" style="stroke:#181818;stroke-width:1.0;"/><line style="stroke:#181818;stroke-width:1.0;" x1="774" x2="1257" y1="437.5625" y2="437.5625"/><text fill="#000000" font-family="sans-serif" font-size="13" lengthAdjust="spacing" textLength="69" x="781" y="432.4966">Notificeerd</text><polygon fill="#181818" points="325.5,462.6953,315.5,466.6953,325.5,470.6953,321.5,466.6953" style="stroke:#181818;stroke-width:1.0;"/><line style="stroke:#181818;stroke-width:1.0;" x1="319.5" x2="1262" y1="466.6953" y2="466.6953"/><text fill="#000000" font-family="sans-serif" font-size="13" lengthAdjust="spacing" textLength="135" x="331.5" y="461.6294">Haalt klant gegevens</text><polygon fill="#181818" points="44.5,491.8281,34.5,495.8281,44.5,499.8281,40.5,495.8281" style="stroke:#181818;stroke-width:1.0;"/><line style="stroke:#181818;stroke-width:1.0;" x1="38.5" x2="1262" y1="495.8281" y2="495.8281"/><text fill="#000000" font-family="sans-serif" font-size="13" lengthAdjust="spacing" textLength="82" x="50.5" y="490.7622">Email of SMS</text><polygon fill="#181818" points="44.5,520.9609,34.5,524.9609,44.5,528.9609,40.5,524.9609" style="stroke:#181818;stroke-width:1.0;"/><line style="stroke:#181818;stroke-width:1.0;" x1="38.5" x2="313.5" y1="524.9609" y2="524.9609"/><text fill="#000000" font-family="sans-serif" font-size="13" lengthAdjust="spacing" textLength="217" x="50.5" y="519.895">Burger bekijkt zaak via Mijn Zaken</text><polygon fill="#181818" points="44.5,550.0938,34.5,554.0938,44.5,558.0938,40.5,554.0938" style="stroke:#181818;stroke-width:1.0;"/><line style="stroke:#181818;stroke-width:1.0;" x1="38.5" x2="552.5" y1="554.0938" y2="554.0938"/><text fill="#000000" font-family="sans-serif" font-size="13" lengthAdjust="spacing" textLength="275" x="50.5" y="549.0278">Burger bekijkt waardepapier via Mijn Zaken</text><text fill="#888888" font-family="sans-serif" font-size="10" lengthAdjust="spacing" textLength="101" x="1191" y="14.2822">Common Gateway</text><text fill="#888888" font-family="sans-serif" font-size="10" lengthAdjust="spacing" textLength="216" x="538" y="657.6729">Common Gateway | ZGW Waardepapier</text><!--SRC=[VLAnRi8m4Dtz5IUcTcW_84C7aeekH14CaR8ToP6Q97PaNq2WVdnj4qg0YidMlVVkxZsR9RSKGR788KSq5VNOIp9YgpMJYI3MNQSLB93fW4VuUMH-4rQFJ26mP6qWbYnFf4I5Z1kq1BC2iG53jRHia2L1gRjUAr8y0xHGhE89ET7bq3deYI1n0dUNV8HPgbbkPHbOyGqhlPAcsvE2DPczB2cmycmo-mknBPt8k1Fcgommt7axxNXk7wv2Z7RXxSCRWGYMpYr3y8oeu8NUwtVOIuG3RM2hJJUqRerNuTbEbCOHZ2Q8J2NIKCspssgUZGCYy4kE_NK_0cx72v2HiLehMrDDUrBsIl8zO-FRmM7wd6SqyRsp5f7jVt0ONH23PUJ1Fj_-dCqT4cftBfeMtKjVLfrmnbGZ-EnGjg2ti5wkBqF_mFbWQZAmeKRkNEOddubFUYbtoYNKk5-OF9TCdTv9Vm40]--></g></svg>