<?xml version="1.0" encoding="us-ascii" standalone="no"?><svg xmlns="http://www.w3.org/2000/svg" xmlns:xlink="http://www.w3.org/1999/xlink" contentStyleType="text/css" height="668px" preserveAspectRatio="none" style="width:1303px;height:668px;" version="1.1" viewBox="0 0 1303 668" width="1303px" zoomAndPan="magnify"><defs/><g><text fill="#000000" font-family="sans-serif" font-size="14" font-weight="bold" lengthAdjust="spacing" textLength="155" x="570" y="40.6357">ZGW Waardepapier</text><line style="stroke:#181818;stroke-width:0.5;stroke-dasharray:5.0,5.0;" x1="36" x2="36" y1="131.2344" y2="572.0938"/><line style="stroke:#181818;stroke-width:0.5;stroke-dasharray:5.0,5.0;" x1="317" x2="317" y1="131.2344" y2="572.0938"/><line style="stroke:#181818;stroke-width:0.5;stroke-dasharray:5.0,5.0;" x1="556" x2="556" y1="131.2344" y2="572.0938"/><line style="stroke:#181818;stroke-width:0.5;stroke-dasharray:5.0,5.0;" x1="777" x2="777" y1="131.2344" y2="572.0938"/><line style="stroke:#181818;stroke-width:0.5;stroke-dasharray:5.0,5.0;" x1="964" x2="964" y1="131.2344" y2="572.0938"/><line style="stroke:#181818;stroke-width:0.5;stroke-dasharray:5.0,5.0;" x1="1167" x2="1167" y1="131.2344" y2="572.0938"/><line style="stroke:#181818;stroke-width:0.5;stroke-dasharray:5.0,5.0;" x1="1266" x2="1266" y1="131.2344" y2="572.0938"/><text fill="#000000" font-family="sans-serif" font-size="14" lengthAdjust="spacing" textLength="57" x="5" y="127.9326">Inwoner</text><ellipse cx="36.5" cy="63.4375" fill="#00377A" rx="8" ry="8" style="stroke:#181818;stroke-width:0.5;"/><path d="M36.5,71.4375 L36.5,98.4375 M23.5,79.4375 L49.5,79.4375 M36.5,98.4375 L23.5,113.4375 M36.5,98.4375 L49.5,113.4375 " fill="none" style="stroke:#181818;stroke-width:0.5;"/><text fill="#000000" font-family="sans-serif" font-size="14" lengthAdjust="spacing" textLength="57" x="5" y="584.0889">Inwoner</text><ellipse cx="36.5" cy="595.8906" fill="#00377A" rx="8" ry="8" style="stroke:#181818;stroke-width:0.5;"/><path d="M36.5,603.8906 L36.5,630.8906 M23.5,611.8906 L49.5,611.8906 M36.5,630.8906 L23.5,645.8906 M36.5,630.8906 L49.5,645.8906 " fill="none" style="stroke:#181818;stroke-width:0.5;"/><text fill="#000000" font-family="sans-serif" font-size="14" lengthAdjust="spacing" textLength="203" x="213" y="127.9326">Zaak registratie component</text><path d="M299.5,78.9375 C299.5,68.9375 317.5,68.9375 317.5,68.9375 C317.5,68.9375 335.5,68.9375 335.5,78.9375 L335.5,104.9375 C335.5,114.9375 317.5,114.9375 317.5,114.9375 C317.5,114.9375 299.5,114.9375 299.5,104.9375 L299.5,78.9375 " fill="#00377A" style="stroke:#181818;stroke-width:1.5;"/><path d="M299.5,78.9375 C299.5,88.9375 317.5,88.9375 317.5,88.9375 C317.5,88.9375 335.5,88.9375 335.5,78.9375 " fill="none" style="stroke:#181818;stroke-width:1.5;"/><text fill="#000000" font-family="sans-serif" font-size="14" lengthAdjust="spacing" textLength="203" x="213" y="584.0889">Zaak registratie component</text><path d="M299.5,597.3906 C299.5,587.3906 317.5,587.3906 317.5,587.3906 C317.5,587.3906 335.5,587.3906 335.5,597.3906 L335.5,623.3906 C335.5,633.3906 317.5,633.3906 317.5,633.3906 C317.5,633.3906 299.5,633.3906 299.5,623.3906 L299.5,597.3906 " fill="#00377A" style="stroke:#181818;stroke-width:1.5;"/><path d="M299.5,597.3906 C299.5,607.3906 317.5,607.3906 317.5,607.3906 C317.5,607.3906 335.5,607.3906 335.5,597.3906 " fill="none" style="stroke:#181818;stroke-width:1.5;"/><text fill="#000000" font-family="sans-serif" font-size="14" lengthAdjust="spacing" textLength="243" x="432" y="127.9326">Document registratie component</text><path d="M538.5,78.9375 C538.5,68.9375 556.5,68.9375 556.5,68.9375 C556.5,68.9375 574.5,68.9375 574.5,78.9375 L574.5,104.9375 C574.5,114.9375 556.5,114.9375 556.5,114.9375 C556.5,114.9375 538.5,114.9375 538.5,104.9375 L538.5,78.9375 " fill="#00377A" style="stroke:#181818;stroke-width:1.5;"/><path d="M538.5,78.9375 C538.5,88.9375 556.5,88.9375 556.5,88.9375 C556.5,88.9375 574.5,88.9375 574.5,78.9375 " fill="none" style="stroke:#181818;stroke-width:1.5;"/><text fill="#000000" font-family="sans-serif" font-size="14" lengthAdjust="spacing" textLength="243" x="432" y="584.0889">Document registratie component</text><path d="M538.5,597.3906 C538.5,587.3906 556.5,587.3906 556.5,587.3906 C556.5,587.3906 574.5,587.3906 574.5,597.3906 L574.5,623.3906 C574.5,633.3906 556.5,633.3906 556.5,633.3906 C556.5,633.3906 538.5,633.3906 538.5,623.3906 L538.5,597.3906 " fill="#00377A" style="stroke:#181818;stroke-width:1.5;"/><path d="M538.5,597.3906 C538.5,607.3906 556.5,607.3906 556.5,607.3906 C556.5,607.3906 574.5,607.3906 574.5,597.3906 " fill="none" style="stroke:#181818;stroke-width:1.5;"/><text fill="#000000" font-family="sans-serif" font-size="14" lengthAdjust="spacing" textLength="166" x="691" y="127.9326">Notificatie Component</text><ellipse cx="777" cy="98.9375" fill="#00377A" rx="12" ry="12" style="stroke:#181818;stroke-width:0.5;"/><line style="stroke:#181818;stroke-width:0.5;" x1="765" x2="789" y1="112.9375" y2="112.9375"/><text fill="#000000" font-family="sans-serif" font-size="14" lengthAdjust="spacing" textLength="166" x="691" y="584.0889">Notificatie Component</text><ellipse cx="777" cy="603.3906" fill="#00377A" rx="12" ry="12" style="stroke:#181818;stroke-width:0.5;"/><line style="stroke:#181818;stroke-width:0.5;" x1="765" x2="789" y1="617.3906" y2="617.3906"/><text fill="#000000" font-family="sans-serif" font-size="14" lengthAdjust="spacing" textLength="176" x="873" y="127.9326">Waardepapieren Service</text><ellipse cx="964" cy="98.9375" fill="#FA4494" rx="12" ry="12" style="stroke:#181818;stroke-width:0.5;"/><line style="stroke:#181818;stroke-width:0.5;" x1="952" x2="976" y1="112.9375" y2="112.9375"/><text fill="#000000" font-family="sans-serif" font-size="14" lengthAdjust="spacing" textLength="176" x="873" y="584.0889">Waardepapieren Service</text><ellipse cx="964" cy="603.3906" fill="#FA4494" rx="12" ry="12" style="stroke:#181818;stroke-width:0.5;"/><line style="stroke:#181818;stroke-width:0.5;" x1="952" x2="976" y1="617.3906" y2="617.3906"/><text fill="#000000" font-family="sans-serif" font-size="14" lengthAdjust="spacing" textLength="122" x="1103" y="127.9326">Haalcentraal BRP</text><path d="M1149,78.9375 C1149,68.9375 1167,68.9375 1167,68.9375 C1167,68.9375 1185,68.9375 1185,78.9375 L1185,104.9375 C1185,114.9375 1167,114.9375 1167,114.9375 C1167,114.9375 1149,114.9375 1149,104.9375 L1149,78.9375 " fill="#26B8E6" style="stroke:#181818;stroke-width:1.5;"/><path d="M1149,78.9375 C1149,88.9375 1167,88.9375 1167,88.9375 C1167,88.9375 1185,88.9375 1185,78.9375 " fill="none" style="stroke:#181818;stroke-width:1.5;"/><text fill="#000000" font-family="sans-serif" font-size="14" lengthAdjust="spacing" textLength="122" x="1103" y="584.0889">Haalcentraal BRP</text><path d="M1149,597.3906 C1149,587.3906 1167,587.3906 1167,587.3906 C1167,587.3906 1185,587.3906 1185,597.3906 L1185,623.3906 C1185,633.3906 1167,633.3906 1167,633.3906 C1167,633.3906 1149,633.3906 1149,623.3906 L1149,597.3906 " fill="#26B8E6" style="stroke:#181818;stroke-width:1.5;"/><path d="M1149,597.3906 C1149,607.3906 1167,607.3906 1167,607.3906 C1167,607.3906 1185,607.3906 1185,597.3906 " fill="none" style="stroke:#181818;stroke-width:1.5;"/><text fill="#000000" font-family="sans-serif" font-size="14" lengthAdjust="spacing" textLength="44" x="1241" y="127.9326">Notify</text><ellipse cx="1266" cy="98.9375" fill="#26B8E6" rx="12" ry="12" style="stroke:#181818;stroke-width:0.5;"/><line style="stroke:#181818;stroke-width:0.5;" x1="1254" x2="1278" y1="112.9375" y2="112.9375"/><text fill="#000000" font-family="sans-serif" font-size="14" lengthAdjust="spacing" textLength="44" x="1241" y="584.0889">Notify</text><ellipse cx="1266" cy="603.3906" fill="#26B8E6" rx="12" ry="12" style="stroke:#181818;stroke-width:0.5;"/><line style="stroke:#181818;stroke-width:0.5;" x1="1254" x2="1278" y1="617.3906" y2="617.3906"/><polygon fill="#181818" points="305.5,158.3672,315.5,162.3672,305.5,166.3672,309.5,162.3672" style="stroke:#181818;stroke-width:1.0;"/><line style="stroke:#181818;stroke-width:1.0;" x1="36.5" x2="311.5" y1="162.3672" y2="162.3672"/><text fill="#000000" font-family="sans-serif" font-size="13" lengthAdjust="spacing" textLength="257" x="43.5" y="157.3013">Maakt Zaak aan (e.g. via web formulier)</text><polygon fill="#181818" points="765,187.5,775,191.5,765,195.5,769,191.5" style="stroke:#181818;stroke-width:1.0;"/><line style="stroke:#181818;stroke-width:1.0;" x1="317.5" x2="771" y1="191.5" y2="191.5"/><text fill="#000000" font-family="sans-serif" font-size="13" lengthAdjust="spacing" textLength="69" x="324.5" y="186.4341">Notificeerd</text><polygon fill="#181818" points="952,216.6328,962,220.6328,952,224.6328,956,220.6328" style="stroke:#181818;stroke-width:1.0;"/><line style="stroke:#181818;stroke-width:1.0;" x1="777" x2="958" y1="220.6328" y2="220.6328"/><text fill="#000000" font-family="sans-serif" font-size="13" lengthAdjust="spacing" textLength="69" x="784" y="215.5669">Notificeerd</text><polygon fill="#181818" points="328.5,245.7656,318.5,249.7656,328.5,253.7656,324.5,249.7656" style="stroke:#181818;stroke-width:1.0;"/><line style="stroke:#181818;stroke-width:1.0;" x1="322.5" x2="963" y1="249.7656" y2="249.7656"/><text fill="#000000" font-family="sans-serif" font-size="13" lengthAdjust="spacing" textLength="90" x="334.5" y="244.6997">Haalt Zaak op</text><polygon fill="#181818" points="1155,274.8984,1165,278.8984,1155,282.8984,1159,278.8984" style="stroke:#181818;stroke-width:1.0;"/><line style="stroke:#181818;stroke-width:1.0;" x1="964" x2="1161" y1="278.8984" y2="278.8984"/><text fill="#000000" font-family="sans-serif" font-size="13" lengthAdjust="spacing" textLength="179" x="971" y="273.8325">Haalt Persoonsgegevens op</text><line style="stroke:#181818;stroke-width:1.0;" x1="964" x2="1006" y1="308.0313" y2="308.0313"/><line style="stroke:#181818;stroke-width:1.0;" x1="1006" x2="1006" y1="308.0313" y2="321.0313"/><line style="stroke:#181818;stroke-width:1.0;" x1="965" x2="1006" y1="321.0313" y2="321.0313"/><polygon fill="#181818" points="975,317.0313,965,321.0313,975,325.0313,971,321.0313" style="stroke:#181818;stroke-width:1.0;"/><text fill="#000000" font-family="sans-serif" font-size="13" lengthAdjust="spacing" textLength="135" x="971" y="302.9653">Creerd waardepapier</text><polygon fill="#181818" points="567.5,346.1641,557.5,350.1641,567.5,354.1641,563.5,350.1641" style="stroke:#181818;stroke-width:1.0;"/><line style="stroke:#181818;stroke-width:1.0;" x1="561.5" x2="963" y1="350.1641" y2="350.1641"/><text fill="#000000" font-family="sans-serif" font-size="13" lengthAdjust="spacing" textLength="131" x="573.5" y="345.0981">Plaats waardepapier</text><polygon fill="#181818" points="328.5,375.2969,318.5,379.2969,328.5,383.2969,324.5,379.2969" style="stroke:#181818;stroke-width:1.0;"/><line style="stroke:#181818;stroke-width:1.0;" x1="322.5" x2="963" y1="379.2969" y2="379.2969"/><text fill="#000000" font-family="sans-serif" font-size="13" lengthAdjust="spacing" textLength="67" x="334.5" y="374.231">Zet status</text><polygon fill="#181818" points="765,404.4297,775,408.4297,765,412.4297,769,408.4297" style="stroke:#181818;stroke-width:1.0;"/><line style="stroke:#181818;stroke-width:1.0;" x1="317.5" x2="771" y1="408.4297" y2="408.4297"/><text fill="#000000" font-family="sans-serif" font-size="13" lengthAdjust="spacing" textLength="69" x="324.5" y="403.3638">Notificeerd</text><polygon fill="#181818" points="1254,433.5625,1264,437.5625,1254,441.5625,1258,437.5625" style="stroke:#181818;stroke-width:1.0;"/><line style="stroke:#181818;stroke-width:1.0;" x1="777" x2="1260" y1="437.5625" y2="437.5625"/><text fill="#000000" font-family="sans-serif" font-size="13" lengthAdjust="spacing" textLength="69" x="784" y="432.4966">Notificeerd</text><polygon fill="#181818" points="328.5,462.6953,318.5,466.6953,328.5,470.6953,324.5,466.6953" style="stroke:#181818;stroke-width:1.0;"/><line style="stroke:#181818;stroke-width:1.0;" x1="322.5" x2="1265" y1="466.6953" y2="466.6953"/><text fill="#000000" font-family="sans-serif" font-size="13" lengthAdjust="spacing" textLength="135" x="334.5" y="461.6294">Haalt klant gegevens</text><polygon fill="#181818" points="47.5,491.8281,37.5,495.8281,47.5,499.8281,43.5,495.8281" style="stroke:#181818;stroke-width:1.0;"/><line style="stroke:#181818;stroke-width:1.0;" x1="41.5" x2="1265" y1="495.8281" y2="495.8281"/><text fill="#000000" font-family="sans-serif" font-size="13" lengthAdjust="spacing" textLength="82" x="53.5" y="490.7622">Email of SMS</text><polygon fill="#181818" points="47.5,520.9609,37.5,524.9609,47.5,528.9609,43.5,524.9609" style="stroke:#181818;stroke-width:1.0;"/><line style="stroke:#181818;stroke-width:1.0;" x1="41.5" x2="316.5" y1="524.9609" y2="524.9609"/><text fill="#000000" font-family="sans-serif" font-size="13" lengthAdjust="spacing" textLength="217" x="53.5" y="519.895">Burger bekijkt zaak via Mijn Zaken</text><polygon fill="#181818" points="47.5,550.0938,37.5,554.0938,47.5,558.0938,43.5,554.0938" style="stroke:#181818;stroke-width:1.0;"/><line style="stroke:#181818;stroke-width:1.0;" x1="41.5" x2="555.5" y1="554.0938" y2="554.0938"/><text fill="#000000" font-family="sans-serif" font-size="13" lengthAdjust="spacing" textLength="275" x="53.5" y="549.0278">Burger bekijkt waardepapier via Mijn Zaken</text><text fill="#888888" font-family="sans-serif" font-size="10" lengthAdjust="spacing" textLength="115" x="1180" y="14.2822">Waardepapieren.app</text><text fill="#888888" font-family="sans-serif" font-size="10" lengthAdjust="spacing" textLength="115" x="590" y="657.6729">Waardepapieren.app</text><!--SRC=[VLB1JkD03BtFLrZjXJriXQ22tHmuD4Ni7bf5z52fDoTnmZJ9J3JZj8AlNoTf8M6XfndvlMS_FvarbnJ0xcaBMqINKesr9gSoQvbSC2gIcM5TgnV2z1l85zhKwB2269CYTxOnQMXBwu0T6YyG6LOA4vRINtEqXXoWXr2pVYC3q-lhs_jxL2aonkW99Zl40Xpbsai7rWI9hMgH6Pwqmjrp-8LeQPEc4ie5uN8Wb9hcLvYiBUjC9nqx7B7N_vF7syE6t44drB6t4KmpdCz_pmUU_Y2MYOYTlB1uZZgcl32zkOj_qTtOnMi_jlk-CzGvffyFtU81h2GTXYuZH0DNDCjdSD08HueXiwvgIh7tGxLi4Qt304vB4hbKhRlgDXfNnNu_883MzAc_hK-0U3u34JblhV4vvNGWupz8RS_GjUtWE3oh7bsslQCIaVrNS3TwHmoUaHj_sNsVqIUapssyHL6YNCJPwe1pIZM0nmfr2JQ3pMfp7leEBXgNox76LEYzPFxMPj8clT9x8maLPDJoicIuwIVfFm00]--></g></svg>