<?xml version="1.0" encoding="us-ascii" standalone="no"?><svg xmlns="http://www.w3.org/2000/svg" xmlns:xlink="http://www.w3.org/1999/xlink" contentStyleType="text/css" height="436px" preserveAspectRatio="none" style="width:1035px;height:436px;background:#FFFFFF;" version="1.1" viewBox="0 0 1035 436" width="1035px" zoomAndPan="magnify"><defs/><g><text fill="#000000" font-family="sans-serif" font-size="14" font-weight="bold" lengthAdjust="spacing" textLength="155" x="436" y="40.6357">ZGW Waardepapier</text><line style="stroke:#181818;stroke-width:0.5;stroke-dasharray:5.0,5.0;" x1="109" x2="109" y1="117.2344" y2="354.1641"/><line style="stroke:#181818;stroke-width:0.5;stroke-dasharray:5.0,5.0;" x1="348" x2="348" y1="117.2344" y2="354.1641"/><line style="stroke:#181818;stroke-width:0.5;stroke-dasharray:5.0,5.0;" x1="569" x2="569" y1="117.2344" y2="354.1641"/><line style="stroke:#181818;stroke-width:0.5;stroke-dasharray:5.0,5.0;" x1="756" x2="756" y1="117.2344" y2="354.1641"/><line style="stroke:#181818;stroke-width:0.5;stroke-dasharray:5.0,5.0;" x1="959" x2="959" y1="117.2344" y2="354.1641"/><text fill="#000000" font-family="sans-serif" font-size="14" lengthAdjust="spacing" textLength="203" x="5" y="113.9326">Zaak registratie component</text><path d="M91.5,64.9375 C91.5,54.9375 109.5,54.9375 109.5,54.9375 C109.5,54.9375 127.5,54.9375 127.5,64.9375 L127.5,90.9375 C127.5,100.9375 109.5,100.9375 109.5,100.9375 C109.5,100.9375 91.5,100.9375 91.5,90.9375 L91.5,64.9375 " fill="#E2E2F0" style="stroke:#181818;stroke-width:1.5;"/><path d="M91.5,64.9375 C91.5,74.9375 109.5,74.9375 109.5,74.9375 C109.5,74.9375 127.5,74.9375 127.5,64.9375 " fill="none" style="stroke:#181818;stroke-width:1.5;"/><text fill="#000000" font-family="sans-serif" font-size="14" lengthAdjust="spacing" textLength="203" x="5" y="366.1592">Zaak registratie component</text><path d="M91.5,379.4609 C91.5,369.4609 109.5,369.4609 109.5,369.4609 C109.5,369.4609 127.5,369.4609 127.5,379.4609 L127.5,405.4609 C127.5,415.4609 109.5,415.4609 109.5,415.4609 C109.5,415.4609 91.5,415.4609 91.5,405.4609 L91.5,379.4609 " fill="#E2E2F0" style="stroke:#181818;stroke-width:1.5;"/><path d="M91.5,379.4609 C91.5,389.4609 109.5,389.4609 109.5,389.4609 C109.5,389.4609 127.5,389.4609 127.5,379.4609 " fill="none" style="stroke:#181818;stroke-width:1.5;"/><text fill="#000000" font-family="sans-serif" font-size="14" lengthAdjust="spacing" textLength="243" x="224" y="113.9326">Document registratie component</text><path d="M330.5,64.9375 C330.5,54.9375 348.5,54.9375 348.5,54.9375 C348.5,54.9375 366.5,54.9375 366.5,64.9375 L366.5,90.9375 C366.5,100.9375 348.5,100.9375 348.5,100.9375 C348.5,100.9375 330.5,100.9375 330.5,90.9375 L330.5,64.9375 " fill="#E2E2F0" style="stroke:#181818;stroke-width:1.5;"/><path d="M330.5,64.9375 C330.5,74.9375 348.5,74.9375 348.5,74.9375 C348.5,74.9375 366.5,74.9375 366.5,64.9375 " fill="none" style="stroke:#181818;stroke-width:1.5;"/><text fill="#000000" font-family="sans-serif" font-size="14" lengthAdjust="spacing" textLength="243" x="224" y="366.1592">Document registratie component</text><path d="M330.5,379.4609 C330.5,369.4609 348.5,369.4609 348.5,369.4609 C348.5,369.4609 366.5,369.4609 366.5,379.4609 L366.5,405.4609 C366.5,415.4609 348.5,415.4609 348.5,415.4609 C348.5,415.4609 330.5,415.4609 330.5,405.4609 L330.5,379.4609 " fill="#E2E2F0" style="stroke:#181818;stroke-width:1.5;"/><path d="M330.5,379.4609 C330.5,389.4609 348.5,389.4609 348.5,389.4609 C348.5,389.4609 366.5,389.4609 366.5,379.4609 " fill="none" style="stroke:#181818;stroke-width:1.5;"/><text fill="#000000" font-family="sans-serif" font-size="14" lengthAdjust="spacing" textLength="166" x="483" y="113.9326">Notificatie Component</text><ellipse cx="569" cy="84.9375" fill="#E2E2F0" rx="12" ry="12" style="stroke:#181818;stroke-width:0.5;"/><line style="stroke:#181818;stroke-width:0.5;" x1="557" x2="581" y1="98.9375" y2="98.9375"/><text fill="#000000" font-family="sans-serif" font-size="14" lengthAdjust="spacing" textLength="166" x="483" y="366.1592">Notificatie Component</text><ellipse cx="569" cy="385.4609" fill="#E2E2F0" rx="12" ry="12" style="stroke:#181818;stroke-width:0.5;"/><line style="stroke:#181818;stroke-width:0.5;" x1="557" x2="581" y1="399.4609" y2="399.4609"/><text fill="#000000" font-family="sans-serif" font-size="14" lengthAdjust="spacing" textLength="176" x="665" y="113.9326">Waardepapieren Service</text><ellipse cx="756" cy="84.9375" fill="#E2E2F0" rx="12" ry="12" style="stroke:#181818;stroke-width:0.5;"/><line style="stroke:#181818;stroke-width:0.5;" x1="744" x2="768" y1="98.9375" y2="98.9375"/><text fill="#000000" font-family="sans-serif" font-size="14" lengthAdjust="spacing" textLength="176" x="665" y="366.1592">Waardepapieren Service</text><ellipse cx="756" cy="385.4609" fill="#E2E2F0" rx="12" ry="12" style="stroke:#181818;stroke-width:0.5;"/><line style="stroke:#181818;stroke-width:0.5;" x1="744" x2="768" y1="399.4609" y2="399.4609"/><text fill="#000000" font-family="sans-serif" font-size="14" lengthAdjust="spacing" textLength="122" x="895" y="113.9326">Haalcentraal BRP</text><path d="M941,64.9375 C941,54.9375 959,54.9375 959,54.9375 C959,54.9375 977,54.9375 977,64.9375 L977,90.9375 C977,100.9375 959,100.9375 959,100.9375 C959,100.9375 941,100.9375 941,90.9375 L941,64.9375 " fill="#E2E2F0" style="stroke:#181818;stroke-width:1.5;"/><path d="M941,64.9375 C941,74.9375 959,74.9375 959,74.9375 C959,74.9375 977,74.9375 977,64.9375 " fill="none" style="stroke:#181818;stroke-width:1.5;"/><text fill="#000000" font-family="sans-serif" font-size="14" lengthAdjust="spacing" textLength="122" x="895" y="366.1592">Haalcentraal BRP</text><path d="M941,379.4609 C941,369.4609 959,369.4609 959,369.4609 C959,369.4609 977,369.4609 977,379.4609 L977,405.4609 C977,415.4609 959,415.4609 959,415.4609 C959,415.4609 941,415.4609 941,405.4609 L941,379.4609 " fill="#E2E2F0" style="stroke:#181818;stroke-width:1.5;"/><path d="M941,379.4609 C941,389.4609 959,389.4609 959,389.4609 C959,389.4609 977,389.4609 977,379.4609 " fill="none" style="stroke:#181818;stroke-width:1.5;"/><polygon fill="#181818" points="557,144.3672,567,148.3672,557,152.3672,561,148.3672" style="stroke:#181818;stroke-width:1.0;"/><line style="stroke:#181818;stroke-width:1.0;" x1="109.5" x2="563" y1="148.3672" y2="148.3672"/><text fill="#000000" font-family="sans-serif" font-size="13" lengthAdjust="spacing" textLength="69" x="116.5" y="143.3013">Notificeerd</text><polygon fill="#181818" points="744,173.5,754,177.5,744,181.5,748,177.5" style="stroke:#181818;stroke-width:1.0;"/><line style="stroke:#181818;stroke-width:1.0;" x1="569" x2="750" y1="177.5" y2="177.5"/><text fill="#000000" font-family="sans-serif" font-size="13" lengthAdjust="spacing" textLength="69" x="576" y="172.4341">Notificeerd</text><polygon fill="#181818" points="120.5,202.6328,110.5,206.6328,120.5,210.6328,116.5,206.6328" style="stroke:#181818;stroke-width:1.0;"/><line style="stroke:#181818;stroke-width:1.0;" x1="114.5" x2="755" y1="206.6328" y2="206.6328"/><text fill="#000000" font-family="sans-serif" font-size="13" lengthAdjust="spacing" textLength="90" x="126.5" y="201.5669">Haalt Zaak op</text><polygon fill="#181818" points="947,231.7656,957,235.7656,947,239.7656,951,235.7656" style="stroke:#181818;stroke-width:1.0;"/><line style="stroke:#181818;stroke-width:1.0;" x1="756" x2="953" y1="235.7656" y2="235.7656"/><text fill="#000000" font-family="sans-serif" font-size="13" lengthAdjust="spacing" textLength="179" x="763" y="230.6997">Haalt Persoonsgegevens op</text><line style="stroke:#181818;stroke-width:1.0;" x1="756" x2="798" y1="264.8984" y2="264.8984"/><line style="stroke:#181818;stroke-width:1.0;" x1="798" x2="798" y1="264.8984" y2="277.8984"/><line style="stroke:#181818;stroke-width:1.0;" x1="757" x2="798" y1="277.8984" y2="277.8984"/><polygon fill="#181818" points="767,273.8984,757,277.8984,767,281.8984,763,277.8984" style="stroke:#181818;stroke-width:1.0;"/><text fill="#000000" font-family="sans-serif" font-size="13" lengthAdjust="spacing" textLength="135" x="763" y="259.8325">Creerd waardepapier</text><polygon fill="#181818" points="359.5,303.0313,349.5,307.0313,359.5,311.0313,355.5,307.0313" style="stroke:#181818;stroke-width:1.0;"/><line style="stroke:#181818;stroke-width:1.0;" x1="353.5" x2="755" y1="307.0313" y2="307.0313"/><text fill="#000000" font-family="sans-serif" font-size="13" lengthAdjust="spacing" textLength="131" x="365.5" y="301.9653">Plaats waardepapier</text><polygon fill="#181818" points="120.5,332.1641,110.5,336.1641,120.5,340.1641,116.5,336.1641" style="stroke:#181818;stroke-width:1.0;"/><line style="stroke:#181818;stroke-width:1.0;" x1="114.5" x2="755" y1="336.1641" y2="336.1641"/><text fill="#000000" font-family="sans-serif" font-size="13" lengthAdjust="spacing" textLength="67" x="126.5" y="331.0981">Zet status</text><text fill="#888888" font-family="sans-serif" font-size="10" lengthAdjust="spacing" textLength="101" x="926" y="14.2822">Common Gateway</text><text fill="#888888" font-family="sans-serif" font-size="10" lengthAdjust="spacing" textLength="216" x="405.5" y="425.7432">Common Gateway | ZGW Waardepapier</text><!--SRC=[VP31QiCm38RlVWgH-ruWXnsMG7SAfZiOSjCIDJDBh62hBOKz_6IleoaTEqde__vVGk9bfXhwdGE764TQSVKKpO5PADRGyB9mW1qAdV42Nu_a1-7uI1epek0x9eAgH_o4I9DF4b4ymS3Boe62L809-dspWLiUZejA_nXQDMZlvG9Ln-8FVYXKSqTrDsXxBmLuetZo0nNAsStkLyHvK5FK2YzxMmYjnkYDyFIicJLSDnB5qNHbwkpzrDayLKiDEL6WF83Ngw21luAbc9X3ccYY4uLqWt9c4tCSdBVV_b7Rd6rdH4b_oMLrJm99K8xf6m00]--></g></svg>