<?xml version="1.0" encoding="us-ascii" standalone="no"?><svg xmlns="http://www.w3.org/2000/svg" xmlns:xlink="http://www.w3.org/1999/xlink" contentStyleType="text/css" height="551px" preserveAspectRatio="none" style="width:1300px;height:551px;background:#FFFFFF;" version="1.1" viewBox="0 0 1300 551" width="1300px" zoomAndPan="magnify"><defs/><g><text fill="#000000" font-family="sans-serif" font-size="14" font-weight="bold" lengthAdjust="spacing" textLength="155" x="568.5" y="40.6357">ZGW Waardepapier</text><line style="stroke:#181818;stroke-width:0.5;stroke-dasharray:5.0,5.0;" x1="33" x2="33" y1="131.2344" y2="455.5625"/><line style="stroke:#181818;stroke-width:0.5;stroke-dasharray:5.0,5.0;" x1="314" x2="314" y1="131.2344" y2="455.5625"/><line style="stroke:#181818;stroke-width:0.5;stroke-dasharray:5.0,5.0;" x1="553" x2="553" y1="131.2344" y2="455.5625"/><line style="stroke:#181818;stroke-width:0.5;stroke-dasharray:5.0,5.0;" x1="774" x2="774" y1="131.2344" y2="455.5625"/><line style="stroke:#181818;stroke-width:0.5;stroke-dasharray:5.0,5.0;" x1="961" x2="961" y1="131.2344" y2="455.5625"/><line style="stroke:#181818;stroke-width:0.5;stroke-dasharray:5.0,5.0;" x1="1164" x2="1164" y1="131.2344" y2="455.5625"/><line style="stroke:#181818;stroke-width:0.5;stroke-dasharray:5.0,5.0;" x1="1263" x2="1263" y1="131.2344" y2="455.5625"/><text fill="#000000" font-family="sans-serif" font-size="14" lengthAdjust="spacing" textLength="51" x="5" y="127.9326">Citizen</text><ellipse cx="33.5" cy="63.4375" fill="#E2E2F0" rx="8" ry="8" style="stroke:#181818;stroke-width:0.5;"/><path d="M33.5,71.4375 L33.5,98.4375 M20.5,79.4375 L46.5,79.4375 M33.5,98.4375 L20.5,113.4375 M33.5,98.4375 L46.5,113.4375 " fill="none" style="stroke:#181818;stroke-width:0.5;"/><text fill="#000000" font-family="sans-serif" font-size="14" lengthAdjust="spacing" textLength="51" x="5" y="467.5576">Citizen</text><ellipse cx="33.5" cy="479.3594" fill="#E2E2F0" rx="8" ry="8" style="stroke:#181818;stroke-width:0.5;"/><path d="M33.5,487.3594 L33.5,514.3594 M20.5,495.3594 L46.5,495.3594 M33.5,514.3594 L20.5,529.3594 M33.5,514.3594 L46.5,529.3594 " fill="none" style="stroke:#181818;stroke-width:0.5;"/><text fill="#000000" font-family="sans-serif" font-size="14" lengthAdjust="spacing" textLength="203" x="210" y="127.9326">Zaak registratie component</text><path d="M296.5,78.9375 C296.5,68.9375 314.5,68.9375 314.5,68.9375 C314.5,68.9375 332.5,68.9375 332.5,78.9375 L332.5,104.9375 C332.5,114.9375 314.5,114.9375 314.5,114.9375 C314.5,114.9375 296.5,114.9375 296.5,104.9375 L296.5,78.9375 " fill="#E2E2F0" style="stroke:#181818;stroke-width:1.5;"/><path d="M296.5,78.9375 C296.5,88.9375 314.5,88.9375 314.5,88.9375 C314.5,88.9375 332.5,88.9375 332.5,78.9375 " fill="none" style="stroke:#181818;stroke-width:1.5;"/><text fill="#000000" font-family="sans-serif" font-size="14" lengthAdjust="spacing" textLength="203" x="210" y="467.5576">Zaak registratie component</text><path d="M296.5,480.8594 C296.5,470.8594 314.5,470.8594 314.5,470.8594 C314.5,470.8594 332.5,470.8594 332.5,480.8594 L332.5,506.8594 C332.5,516.8594 314.5,516.8594 314.5,516.8594 C314.5,516.8594 296.5,516.8594 296.5,506.8594 L296.5,480.8594 " fill="#E2E2F0" style="stroke:#181818;stroke-width:1.5;"/><path d="M296.5,480.8594 C296.5,490.8594 314.5,490.8594 314.5,490.8594 C314.5,490.8594 332.5,490.8594 332.5,480.8594 " fill="none" style="stroke:#181818;stroke-width:1.5;"/><text fill="#000000" font-family="sans-serif" font-size="14" lengthAdjust="spacing" textLength="243" x="429" y="127.9326">Document registratie component</text><path d="M535.5,78.9375 C535.5,68.9375 553.5,68.9375 553.5,68.9375 C553.5,68.9375 571.5,68.9375 571.5,78.9375 L571.5,104.9375 C571.5,114.9375 553.5,114.9375 553.5,114.9375 C553.5,114.9375 535.5,114.9375 535.5,104.9375 L535.5,78.9375 " fill="#E2E2F0" style="stroke:#181818;stroke-width:1.5;"/><path d="M535.5,78.9375 C535.5,88.9375 553.5,88.9375 553.5,88.9375 C553.5,88.9375 571.5,88.9375 571.5,78.9375 " fill="none" style="stroke:#181818;stroke-width:1.5;"/><text fill="#000000" font-family="sans-serif" font-size="14" lengthAdjust="spacing" textLength="243" x="429" y="467.5576">Document registratie component</text><path d="M535.5,480.8594 C535.5,470.8594 553.5,470.8594 553.5,470.8594 C553.5,470.8594 571.5,470.8594 571.5,480.8594 L571.5,506.8594 C571.5,516.8594 553.5,516.8594 553.5,516.8594 C553.5,516.8594 535.5,516.8594 535.5,506.8594 L535.5,480.8594 " fill="#E2E2F0" style="stroke:#181818;stroke-width:1.5;"/><path d="M535.5,480.8594 C535.5,490.8594 553.5,490.8594 553.5,490.8594 C553.5,490.8594 571.5,490.8594 571.5,480.8594 " fill="none" style="stroke:#181818;stroke-width:1.5;"/><text fill="#000000" font-family="sans-serif" font-size="14" lengthAdjust="spacing" textLength="166" x="688" y="127.9326">Notificatie Component</text><ellipse cx="774" cy="98.9375" fill="#E2E2F0" rx="12" ry="12" style="stroke:#181818;stroke-width:0.5;"/><line style="stroke:#181818;stroke-width:0.5;" x1="762" x2="786" y1="112.9375" y2="112.9375"/><text fill="#000000" font-family="sans-serif" font-size="14" lengthAdjust="spacing" textLength="166" x="688" y="467.5576">Notificatie Component</text><ellipse cx="774" cy="486.8594" fill="#E2E2F0" rx="12" ry="12" style="stroke:#181818;stroke-width:0.5;"/><line style="stroke:#181818;stroke-width:0.5;" x1="762" x2="786" y1="500.8594" y2="500.8594"/><text fill="#000000" font-family="sans-serif" font-size="14" lengthAdjust="spacing" textLength="176" x="870" y="127.9326">Waardepapieren Service</text><ellipse cx="961" cy="98.9375" fill="#E2E2F0" rx="12" ry="12" style="stroke:#181818;stroke-width:0.5;"/><line style="stroke:#181818;stroke-width:0.5;" x1="949" x2="973" y1="112.9375" y2="112.9375"/><text fill="#000000" font-family="sans-serif" font-size="14" lengthAdjust="spacing" textLength="176" x="870" y="467.5576">Waardepapieren Service</text><ellipse cx="961" cy="486.8594" fill="#E2E2F0" rx="12" ry="12" style="stroke:#181818;stroke-width:0.5;"/><line style="stroke:#181818;stroke-width:0.5;" x1="949" x2="973" y1="500.8594" y2="500.8594"/><text fill="#000000" font-family="sans-serif" font-size="14" lengthAdjust="spacing" textLength="122" x="1100" y="127.9326">Haalcentraal BRP</text><path d="M1146,78.9375 C1146,68.9375 1164,68.9375 1164,68.9375 C1164,68.9375 1182,68.9375 1182,78.9375 L1182,104.9375 C1182,114.9375 1164,114.9375 1164,114.9375 C1164,114.9375 1146,114.9375 1146,104.9375 L1146,78.9375 " fill="#E2E2F0" style="stroke:#181818;stroke-width:1.5;"/><path d="M1146,78.9375 C1146,88.9375 1164,88.9375 1164,88.9375 C1164,88.9375 1182,88.9375 1182,78.9375 " fill="none" style="stroke:#181818;stroke-width:1.5;"/><text fill="#000000" font-family="sans-serif" font-size="14" lengthAdjust="spacing" textLength="122" x="1100" y="467.5576">Haalcentraal BRP</text><path d="M1146,480.8594 C1146,470.8594 1164,470.8594 1164,470.8594 C1164,470.8594 1182,470.8594 1182,480.8594 L1182,506.8594 C1182,516.8594 1164,516.8594 1164,516.8594 C1164,516.8594 1146,516.8594 1146,506.8594 L1146,480.8594 " fill="#E2E2F0" style="stroke:#181818;stroke-width:1.5;"/><path d="M1146,480.8594 C1146,490.8594 1164,490.8594 1164,490.8594 C1164,490.8594 1182,490.8594 1182,480.8594 " fill="none" style="stroke:#181818;stroke-width:1.5;"/><text fill="#000000" font-family="sans-serif" font-size="14" lengthAdjust="spacing" textLength="44" x="1238" y="127.9326">Notify</text><ellipse cx="1263" cy="98.9375" fill="#E2E2F0" rx="12" ry="12" style="stroke:#181818;stroke-width:0.5;"/><line style="stroke:#181818;stroke-width:0.5;" x1="1251" x2="1275" y1="112.9375" y2="112.9375"/><text fill="#000000" font-family="sans-serif" font-size="14" lengthAdjust="spacing" textLength="44" x="1238" y="467.5576">Notify</text><ellipse cx="1263" cy="486.8594" fill="#E2E2F0" rx="12" ry="12" style="stroke:#181818;stroke-width:0.5;"/><line style="stroke:#181818;stroke-width:0.5;" x1="1251" x2="1275" y1="500.8594" y2="500.8594"/><polygon fill="#181818" points="302.5,158.3672,312.5,162.3672,302.5,166.3672,306.5,162.3672" style="stroke:#181818;stroke-width:1.0;"/><line style="stroke:#181818;stroke-width:1.0;" x1="33.5" x2="308.5" y1="162.3672" y2="162.3672"/><text fill="#000000" font-family="sans-serif" font-size="13" lengthAdjust="spacing" textLength="257" x="40.5" y="157.3013">Maakt Zaak aan (e.g. via web formulier)</text><polygon fill="#181818" points="762,187.5,772,191.5,762,195.5,766,191.5" style="stroke:#181818;stroke-width:1.0;"/><line style="stroke:#181818;stroke-width:1.0;" x1="314.5" x2="768" y1="191.5" y2="191.5"/><text fill="#000000" font-family="sans-serif" font-size="13" lengthAdjust="spacing" textLength="69" x="321.5" y="186.4341">Notificeerd</text><polygon fill="#181818" points="949,216.6328,959,220.6328,949,224.6328,953,220.6328" style="stroke:#181818;stroke-width:1.0;"/><line style="stroke:#181818;stroke-width:1.0;" x1="774" x2="955" y1="220.6328" y2="220.6328"/><text fill="#000000" font-family="sans-serif" font-size="13" lengthAdjust="spacing" textLength="69" x="781" y="215.5669">Notificeerd</text><polygon fill="#181818" points="325.5,245.7656,315.5,249.7656,325.5,253.7656,321.5,249.7656" style="stroke:#181818;stroke-width:1.0;"/><line style="stroke:#181818;stroke-width:1.0;" x1="319.5" x2="960" y1="249.7656" y2="249.7656"/><text fill="#000000" font-family="sans-serif" font-size="13" lengthAdjust="spacing" textLength="90" x="331.5" y="244.6997">Haalt Zaak op</text><polygon fill="#181818" points="1152,274.8984,1162,278.8984,1152,282.8984,1156,278.8984" style="stroke:#181818;stroke-width:1.0;"/><line style="stroke:#181818;stroke-width:1.0;" x1="961" x2="1158" y1="278.8984" y2="278.8984"/><text fill="#000000" font-family="sans-serif" font-size="13" lengthAdjust="spacing" textLength="179" x="968" y="273.8325">Haalt Persoonsgegevens op</text><line style="stroke:#181818;stroke-width:1.0;" x1="961" x2="1003" y1="308.0313" y2="308.0313"/><line style="stroke:#181818;stroke-width:1.0;" x1="1003" x2="1003" y1="308.0313" y2="321.0313"/><line style="stroke:#181818;stroke-width:1.0;" x1="962" x2="1003" y1="321.0313" y2="321.0313"/><polygon fill="#181818" points="972,317.0313,962,321.0313,972,325.0313,968,321.0313" style="stroke:#181818;stroke-width:1.0;"/><text fill="#000000" font-family="sans-serif" font-size="13" lengthAdjust="spacing" textLength="135" x="968" y="302.9653">Creerd waardepapier</text><polygon fill="#181818" points="564.5,346.1641,554.5,350.1641,564.5,354.1641,560.5,350.1641" style="stroke:#181818;stroke-width:1.0;"/><line style="stroke:#181818;stroke-width:1.0;" x1="558.5" x2="960" y1="350.1641" y2="350.1641"/><text fill="#000000" font-family="sans-serif" font-size="13" lengthAdjust="spacing" textLength="131" x="570.5" y="345.0981">Plaats waardepapier</text><polygon fill="#181818" points="325.5,375.2969,315.5,379.2969,325.5,383.2969,321.5,379.2969" style="stroke:#181818;stroke-width:1.0;"/><line style="stroke:#181818;stroke-width:1.0;" x1="319.5" x2="960" y1="379.2969" y2="379.2969"/><text fill="#000000" font-family="sans-serif" font-size="13" lengthAdjust="spacing" textLength="67" x="331.5" y="374.231">Zet status</text><polygon fill="#181818" points="44.5,404.4297,34.5,408.4297,44.5,412.4297,40.5,408.4297" style="stroke:#181818;stroke-width:1.0;"/><line style="stroke:#181818;stroke-width:1.0;" x1="38.5" x2="313.5" y1="408.4297" y2="408.4297"/><text fill="#000000" font-family="sans-serif" font-size="13" lengthAdjust="spacing" textLength="217" x="50.5" y="403.3638">Burger bekijkt zaak via Mijn Zaken</text><polygon fill="#181818" points="44.5,433.5625,34.5,437.5625,44.5,441.5625,40.5,437.5625" style="stroke:#181818;stroke-width:1.0;"/><line style="stroke:#181818;stroke-width:1.0;" x1="38.5" x2="552.5" y1="437.5625" y2="437.5625"/><text fill="#000000" font-family="sans-serif" font-size="13" lengthAdjust="spacing" textLength="275" x="50.5" y="432.4966">Burger bekijkt waardepapier via Mijn Zaken</text><text fill="#888888" font-family="sans-serif" font-size="10" lengthAdjust="spacing" textLength="101" x="1191" y="14.2822">Common Gateway</text><text fill="#888888" font-family="sans-serif" font-size="10" lengthAdjust="spacing" textLength="216" x="538" y="541.1416">Common Gateway | ZGW Waardepapier</text><!--SRC=[VLAzRi8m4Dxz52UcTYWFaA43YKGNeWY6IDcEv4WDYHsTBo1G7xvs22AKYicMltybegMX28fb3ZaYLzHXfudLpbeXZY2sRMiDB57eX6VuUMP-4rRFJAMm5CiGQz4NCgf2mIqwWbc1U02cMZjX54rGshQpXepC01qKwtX2JcpPjnvw8KYymD-rd66MMj4xNGwi-86LtadJzcHWGtpK9GsiF9jaVo4sfHUnFs6npWQ6Fn_JpbVxuQhKE1S-FiCGY63brmeCcn4DlD6ydiDH8vne2plBRT_u6kygiBqeZICOHn1nfTBXDSyUN_Di38WWb1pzRJS2lkCDo8YTjSRLLDEHZBkJWcVCmGvEqyzvHPFWdJM8ulw3X-Y219oWzExMVbmVmQBdcXYsTD1xF_yIweNHAxqtlkp1_n39Qyaqz8_q5m00]--></g></svg>